<svg width="121" height="120" viewBox="0 0 121 120" fill="none" xmlns="http://www.w3.org/2000/svg">
    <circle cx="60.5" cy="60" r="60" fill="#FF4433" fill-opacity="0.05" />
    <path fill-rule="evenodd" clip-rule="evenodd"
        d="M65.6162 38H67.919C70.7139 38 72.9864 40.2847 72.9864 43.0948V55.8929C71.5851 55.9008 70.2569 56.4679 69.3013 57.4087V43.5589C69.3013 42.5361 68.4774 41.705 67.4601 41.705H66.5395C65.5194 41.705 64.6956 42.5361 64.6956 43.5589C64.6956 44.5846 63.869 45.4128 62.8516 45.4128H53.6375C52.6174 45.4128 51.7936 44.5818 51.7936 43.5589C51.7936 42.5333 50.967 41.705 49.9496 41.705H49.029C48.0089 41.705 47.1851 42.5361 47.1851 43.5589V76.9125C47.1851 77.9354 48.0089 78.7664 49.0263 78.7664H56.0766L54.2574 81.7438C54.1039 81.974 53.9702 82.2164 53.857 82.4687H48.5674C45.7724 82.4687 43.5 80.184 43.5 77.3739V43.0948C43.5 40.2847 45.7724 38 48.5674 38H50.873H65.6162Z"
        fill="#FF4433" />
    <path
        d="M85.981 80.4911L76.2526 64.6037C75.6168 63.5169 74.4308 62.8415 73.1591 62.8415C71.8874 62.8415 70.7014 63.5169 70.0822 64.5703L60.3787 80.4244C60 80.9914 59.7982 81.6668 59.7982 82.3783C59.7982 84.374 61.4209 86 63.4142 86H82.9068C84.8973 86.0055 86.52 84.3795 86.52 82.3839C86.52 81.6723 86.3182 80.9969 85.981 80.4911ZM73.1591 82.3005C72.1418 82.3005 71.3152 81.4722 71.3152 80.4466C71.3152 79.4238 72.139 78.5927 73.1591 78.5927C74.1764 78.5927 75.003 79.421 75.003 80.4466C75.0003 81.4694 74.1764 82.3005 73.1591 82.3005ZM75.0003 75.8132C75.0003 76.8361 74.1764 77.6671 73.1563 77.6671C72.139 77.6671 71.3124 76.8361 71.3124 75.8132V72.1082C71.3124 71.0854 72.1362 70.2543 73.1563 70.2543C74.1737 70.2543 75.0003 71.0854 75.0003 72.1082V75.8132Z"
        fill="#FF4433" />
</svg>
