<svg width="192" height="172" viewBox="0 0 192 172" fill="none" xmlns="http://www.w3.org/2000/svg">
<g clip-path="url(#clip0_1841:68956)">
<g clip-path="url(#clip1_1841:68956)">
<path d="M96.0508 34.103C130.254 34.103 157.983 61.8314 157.983 96.0354C157.983 130.241 130.254 157.968 96.0508 157.968C61.8468 157.968 34.1184 130.241 34.1184 96.0354C34.1184 61.8302 61.8468 34.103 96.0508 34.103Z" fill="#CCCCCC"/>
<path d="M101.006 58.8765C83.2203 58.8765 68.8012 73.2943 68.8012 91.0813C68.8012 95.8959 69.8652 100.455 71.7591 104.56L67.3817 108.936C66.2508 110.067 66.3165 115.799 66.3078 115.883C66.2583 115.934 60.9853 115.334 59.8235 116.495L57.4961 118.924C56.0147 120.406 56.3516 125.855 56.3256 125.762L56.3194 125.77C56.3367 125.773 50.9919 125.327 49.8573 126.46L47.2426 129.076C46.0832 130.236 46.3805 135.706 46.3978 135.694C46.404 135.686 40.8462 135.52 40.2628 136.054C36.5902 139.415 34.1191 142.2 34.1191 142.2L34.1414 158C34.1414 158.01 49.8871 157.972 49.8871 157.972L87.5271 120.328C91.7521 122.281 96.3516 123.29 101.006 123.286C118.792 123.286 133.211 108.865 133.211 91.0813C133.211 73.2956 118.792 58.8765 101.006 58.8765ZM109.356 75.5747C110.338 75.3577 111.355 75.3503 112.34 75.5527C113.325 75.7552 114.257 76.1631 115.074 76.7498C115.891 77.3364 116.575 78.0887 117.082 78.9576C117.588 79.8265 117.906 80.7924 118.015 81.7924C118.123 82.7924 118.019 83.804 117.71 84.7612C117.401 85.7184 116.894 86.5998 116.222 87.3478C115.549 88.0958 114.727 88.6937 113.808 89.1025C112.889 89.5112 111.894 89.7216 110.888 89.72C109.725 89.9159 108.532 89.8309 107.408 89.4722C106.285 89.1134 105.263 88.4913 104.428 87.6577C103.596 86.8233 102.974 85.802 102.616 84.6789C102.257 83.5558 102.172 82.3633 102.367 81.2006C102.716 79.6067 103.6 78.1799 104.871 77.1567C106.142 76.1335 107.724 75.5753 109.356 75.5747Z" fill="#3F3D56"/>
<path d="M116.677 75.3676C114.815 73.5058 112.289 72.46 109.656 72.46C107.022 72.46 104.496 73.5058 102.634 75.3676C100.773 77.2303 99.7271 79.7557 99.7271 82.3889C99.7271 85.022 100.773 87.5474 102.634 89.4101C103.556 90.3326 104.65 91.0643 105.855 91.5636C107.06 92.0629 108.351 92.3198 109.656 92.3198C110.96 92.3198 112.251 92.0629 113.456 91.5636C114.661 91.0643 115.755 90.3326 116.677 89.4101C117.6 88.4881 118.331 87.3935 118.83 86.1888C119.329 84.9841 119.586 83.6929 119.586 82.3889C119.586 81.0849 119.329 79.7936 118.83 78.5889C118.331 77.3842 117.6 76.2896 116.677 75.3676ZM114.012 86.7446C113.437 87.3189 112.755 87.7745 112.005 88.0853C111.254 88.3961 110.45 88.556 109.637 88.5558C108.825 88.5557 108.021 88.3956 107.27 88.0846C106.52 87.7736 105.838 87.3179 105.263 86.7433C104.103 85.583 103.452 84.0095 103.452 82.3688C103.452 80.7281 104.104 79.1547 105.265 77.9948C105.839 77.4202 106.521 76.9644 107.271 76.6534C108.021 76.3424 108.826 76.1823 109.638 76.1823C110.451 76.1823 111.255 76.3424 112.005 76.6534C112.756 76.9644 113.438 77.4202 114.012 77.9948C114.587 78.5691 115.043 79.2511 115.354 80.0018C115.665 80.7525 115.825 81.5571 115.825 82.3697C115.825 83.1823 115.665 83.9869 115.354 84.7375C115.043 85.4882 114.587 86.1702 114.012 86.7446ZM81.0192 116.322C80.044 115.553 79.1139 114.728 78.2335 113.852L34.1414 157.943V157.997C34.1414 157.999 36.4787 157.997 39.3511 157.989L81.0192 116.322Z" fill="#FBBEBE"/>
<path d="M128.216 34.103C113.461 34.103 101.222 44.857 98.893 58.9515C99.5964 58.9039 100.301 58.8787 101.006 58.876C102.355 58.876 103.68 58.9689 104.985 59.1311C107.168 48.293 116.737 40.1303 128.216 40.1303C141.304 40.1303 151.917 50.7393 151.917 63.8306C151.917 76.9194 141.309 87.5308 128.216 87.5308C119.744 87.5308 112.334 83.0717 108.141 76.388C107.053 76.651 106.058 77.2061 105.262 77.9933C104.527 78.7375 103.996 79.6578 103.719 80.6663C109.08 88.4512 118.05 93.5581 128.216 93.5581C144.633 93.5581 157.943 80.2488 157.943 63.8306C157.943 47.4135 144.635 34.103 128.216 34.103Z" fill="#EBECED"/>
<path d="M109.805 78.7151C109.206 77.9723 108.65 77.1952 108.141 76.3877C107.877 76.4537 107.618 76.5356 107.364 76.6329L107.357 76.6354C107.12 76.7291 106.889 76.8362 106.664 76.9562L106.309 77.1755L105.984 77.3836C105.751 77.557 105.525 77.7428 105.312 77.9509L105.22 78.0413C105.024 78.2446 104.842 78.461 104.675 78.6891L104.448 79.031L104.274 79.3146C104.038 79.7412 103.851 80.1933 103.718 80.6623C104.276 81.4736 104.879 82.2477 105.517 82.9984L109.805 78.7151Z" fill="#C8C9CB"/>
</g>
<path d="M128.065 14.4188C127.649 14.4188 127.312 14.0815 127.312 13.666C127.312 6.90493 121.812 1.40255 115.049 1.40255C114.633 1.40255 114.296 1.0653 114.296 0.649761C114.296 0.234222 114.633 -0.103027 115.049 -0.103027C122.639 -0.103027 128.816 6.07185 128.816 13.664C128.818 14.0815 128.48 14.4188 128.065 14.4188Z" fill="#D2D2D2"/>
<path d="M123.847 14.4191C123.432 14.4191 123.094 14.0818 123.094 13.6663C123.094 9.5149 119.718 6.13839 115.566 6.13839C115.151 6.13839 114.814 5.80114 114.814 5.3856C114.814 4.97006 115.151 4.63281 115.566 4.63281C120.547 4.63281 124.598 8.68382 124.598 13.6663C124.6 14.0818 124.263 14.4191 123.847 14.4191Z" fill="#D2D2D2"/>
<path d="M154.648 23.6367H135.395C134.771 23.6367 134.261 23.1268 134.261 22.5025V21.3964C134.261 20.7721 134.771 20.2622 135.395 20.2622H154.648C155.273 20.2622 155.783 20.7721 155.783 21.3964V22.5025C155.783 23.1268 155.273 23.6367 154.648 23.6367Z" fill="#E6E6E6"/>
<path d="M154.648 29.3638H135.395C134.771 29.3638 134.261 28.8539 134.261 28.2296V27.1235C134.261 26.4992 134.771 25.9893 135.395 25.9893H154.648C155.273 25.9893 155.783 26.4992 155.783 27.1235V28.2296C155.783 28.8519 155.273 29.3638 154.648 29.3638Z" fill="#E6E6E6"/>
<path d="M154.648 35.0889H135.395C134.771 35.0889 134.261 34.579 134.261 33.9547V32.8486C134.261 32.2242 134.771 31.7144 135.395 31.7144H154.648C155.273 31.7144 155.783 32.2242 155.783 32.8486V33.9547C155.783 34.579 155.273 35.0889 154.648 35.0889Z" fill="#E6E6E6"/>
<path d="M154.648 40.8164H135.395C134.771 40.8164 134.261 40.3065 134.261 39.6822V38.5761C134.261 37.9518 134.771 37.4419 135.395 37.4419H154.648C155.273 37.4419 155.783 37.9518 155.783 38.5761V39.6822C155.783 40.3065 155.273 40.8164 154.648 40.8164Z" fill="#E6E6E6"/>
<path d="M53.462 47.174H9.17393C8.54962 47.174 8.03973 46.6641 8.03973 46.0398V43.7192C8.03973 43.0948 8.54962 42.585 9.17393 42.585H53.462C54.0863 42.585 54.5962 43.0948 54.5962 43.7192V46.0398C54.5962 46.6641 54.0863 47.174 53.462 47.174Z" fill="#E6E6E6"/>
<path d="M53.4618 54.9606H26.4658C25.8415 54.9606 25.3316 54.4507 25.3316 53.8264V51.5058C25.3316 50.8815 25.8415 50.3716 26.4658 50.3716H53.4618C54.0861 50.3716 54.596 50.8815 54.596 51.5058V53.8264C54.596 54.4507 54.0861 54.9606 53.4618 54.9606Z" fill="#E6E6E6"/>
<path d="M53.4618 72.4215H27.9694C27.3451 72.4215 26.8352 71.9116 26.8352 71.2873V68.9687C26.8352 68.3444 27.3451 67.8345 27.9694 67.8345H53.4618C54.0861 67.8345 54.596 68.3444 54.596 68.9687V71.2873C54.596 71.9116 54.0861 72.4215 53.4618 72.4215Z" fill="#E6E6E6"/>
<path d="M53.4615 80.2086H38.2792C37.6549 80.2086 37.145 79.6987 37.145 79.0744V76.7538C37.145 76.1295 37.6549 75.6196 38.2792 75.6196H53.4615C54.0858 75.6196 54.5957 76.1295 54.5957 76.7538V79.0744C54.5957 79.6987 54.0858 80.2086 53.4615 80.2086Z" fill="#E6E6E6"/>
</g>
<defs>
<clipPath id="clip0_1841:68956">
<rect width="192" height="171.495" fill="white" transform="translate(0 0.252441)"/>
</clipPath>
<clipPath id="clip1_1841:68956">
<rect width="123.897" height="123.897" fill="white" transform="translate(34.103 34.103)"/>
</clipPath>
</defs>
</svg>
