<svg width="320" height="320" viewBox="0 0 320 320" fill="none" xmlns="http://www.w3.org/2000/svg">
<rect width="320" height="320" fill="#121212"/>
<g clip-path="url(#clip0_1875:69252)">
<path d="M176.639 102.726C220.36 102.726 255.807 138.171 255.807 181.894C255.807 225.618 220.36 261.062 176.639 261.062C132.916 261.062 97.4707 225.618 97.4707 181.894C97.4707 138.169 132.916 102.726 176.639 102.726Z" fill="#333333"/>
<path d="M182.972 134.394C160.237 134.394 141.805 152.824 141.805 175.561C141.805 181.716 143.165 187.544 145.586 192.791L139.99 198.385C138.545 199.831 138.629 207.157 138.618 207.265C138.554 207.33 131.814 206.563 130.329 208.047L127.354 211.152C125.46 213.047 125.89 220.012 125.857 219.894L125.849 219.903C125.871 219.908 119.039 219.338 117.589 220.785L114.246 224.129C112.764 225.613 113.144 232.605 113.167 232.589C113.174 232.579 106.07 232.367 105.324 233.05C100.63 237.345 97.4707 240.906 97.4707 240.906L97.4992 261.104C97.4992 261.116 117.627 261.067 117.627 261.067L165.742 212.947C171.143 215.443 177.023 216.734 182.972 216.728C205.708 216.728 224.14 198.293 224.14 175.561C224.14 152.825 205.708 134.394 182.972 134.394ZM193.646 155.739C194.901 155.462 196.201 155.452 197.461 155.711C198.72 155.97 199.911 156.491 200.955 157.241C202 157.991 202.874 158.953 203.522 160.063C204.17 161.174 204.576 162.409 204.714 163.687C204.853 164.965 204.72 166.258 204.325 167.482C203.931 168.706 203.282 169.832 202.423 170.788C201.563 171.745 200.512 172.509 199.337 173.031C198.162 173.554 196.89 173.823 195.604 173.821C194.118 174.071 192.592 173.963 191.156 173.504C189.72 173.045 188.414 172.25 187.347 171.185C186.282 170.118 185.488 168.812 185.03 167.377C184.571 165.941 184.463 164.417 184.712 162.931C185.159 160.893 186.288 159.069 187.912 157.761C189.537 156.453 191.56 155.74 193.646 155.739Z" fill="#434175"/>
<path d="M203.006 155.474C200.625 153.094 197.396 151.757 194.03 151.757C190.663 151.757 187.435 153.094 185.054 155.474C182.675 157.855 181.338 161.084 181.338 164.449C181.338 167.815 182.675 171.044 185.054 173.425C186.232 174.604 187.631 175.539 189.172 176.177C190.712 176.816 192.363 177.144 194.03 177.144C195.697 177.144 197.348 176.816 198.888 176.177C200.428 175.539 201.827 174.604 203.006 173.425C204.185 172.246 205.12 170.847 205.758 169.307C206.395 167.767 206.724 166.116 206.724 164.449C206.724 162.783 206.395 161.132 205.758 159.592C205.12 158.052 204.185 156.653 203.006 155.474ZM199.598 170.017C198.864 170.752 197.992 171.334 197.033 171.731C196.073 172.128 195.045 172.333 194.006 172.333C192.968 172.333 191.94 172.128 190.98 171.73C190.021 171.333 189.149 170.75 188.415 170.016C186.932 168.533 186.099 166.521 186.1 164.424C186.1 162.327 186.933 160.315 188.417 158.832C189.151 158.098 190.022 157.515 190.982 157.118C191.941 156.72 192.969 156.516 194.008 156.516C195.046 156.516 196.074 156.72 197.034 157.118C197.993 157.515 198.864 158.098 199.598 158.832C200.333 159.567 200.916 160.438 201.314 161.398C201.711 162.358 201.916 163.386 201.916 164.425C201.916 165.464 201.711 166.492 201.314 167.452C200.916 168.411 200.333 169.283 199.598 170.017ZM157.424 207.826C156.177 206.843 154.988 205.789 153.863 204.669L97.5 261.031V261.099C97.5 261.102 100.488 261.099 104.16 261.089L157.424 207.826Z" fill="#FBBEBE"/>
<path d="M217.755 102.726C198.894 102.726 183.249 116.472 180.272 134.489C181.172 134.429 182.072 134.396 182.974 134.393C184.698 134.393 186.392 134.512 188.059 134.719C190.851 120.865 203.082 110.43 217.755 110.43C234.487 110.43 248.053 123.992 248.053 140.726C248.053 157.458 234.493 171.022 217.755 171.022C206.927 171.022 197.454 165.322 192.094 156.778C190.703 157.115 189.431 157.824 188.414 158.83C187.475 159.782 186.796 160.958 186.441 162.247C193.294 172.199 204.761 178.727 217.755 178.727C238.741 178.727 255.756 161.714 255.756 140.726C255.756 119.74 238.744 102.726 217.755 102.726Z" fill="#444444"/>
<path d="M194.221 159.753C193.454 158.803 192.744 157.81 192.093 156.778C191.756 156.862 191.424 156.967 191.1 157.091L191.09 157.095C190.788 157.214 190.492 157.351 190.205 157.505L189.751 157.785L189.336 158.051C189.038 158.273 188.749 158.51 188.476 158.776L188.359 158.892C188.108 159.151 187.876 159.428 187.662 159.72L187.373 160.157L187.149 160.519C186.848 161.065 186.609 161.643 186.438 162.242C187.153 163.279 187.924 164.269 188.739 165.228L194.221 159.753Z" fill="#333333"/>
</g>
<path d="M217.561 77.5632C217.03 77.5632 216.599 77.1321 216.599 76.6009C216.599 67.9583 209.567 60.9246 200.922 60.9246C200.391 60.9246 199.96 60.4935 199.96 59.9623C199.96 59.4311 200.391 59 200.922 59C210.625 59 218.521 66.8933 218.521 76.5983C218.523 77.1321 218.092 77.5632 217.561 77.5632Z" fill="#444444"/>
<path d="M212.169 77.5635C211.637 77.5635 211.206 77.1324 211.206 76.6012C211.206 71.2945 206.89 66.9783 201.583 66.9783C201.052 66.9783 200.621 66.5472 200.621 66.016C200.621 65.4848 201.052 65.0537 201.583 65.0537C207.95 65.0537 213.128 70.2321 213.128 76.6012C213.131 77.1324 212.7 77.5635 212.169 77.5635Z" fill="#444444"/>
<path d="M251.543 89.3463H226.931C226.133 89.3463 225.481 88.6945 225.481 87.8965V86.4826C225.481 85.6845 226.133 85.0327 226.931 85.0327H251.543C252.341 85.0327 252.993 85.6845 252.993 86.4826V87.8965C252.993 88.6945 252.341 89.3463 251.543 89.3463Z" fill="#444444"/>
<path d="M251.543 96.6671H226.931C226.133 96.6671 225.481 96.0153 225.481 95.2173V93.8034C225.481 93.0053 226.133 92.3535 226.931 92.3535H251.543C252.341 92.3535 252.993 93.0053 252.993 93.8034V95.2173C252.993 96.0128 252.341 96.6671 251.543 96.6671Z" fill="#444444"/>
<path d="M251.543 103.986H226.931C226.133 103.986 225.481 103.334 225.481 102.536V101.122C225.481 100.324 226.133 99.6724 226.931 99.6724H251.543C252.341 99.6724 252.993 100.324 252.993 101.122V102.536C252.993 103.334 252.341 103.986 251.543 103.986Z" fill="#444444"/>
<path d="M251.543 111.307H226.931C226.133 111.307 225.481 110.655 225.481 109.857V108.444C225.481 107.645 226.133 106.994 226.931 106.994H251.543C252.341 106.994 252.993 107.645 252.993 108.444V109.857C252.993 110.655 252.341 111.307 251.543 111.307Z" fill="#444444"/>
<path d="M122.197 119.434H65.5836C64.7856 119.434 64.1338 118.782 64.1338 117.984V115.018C64.1338 114.22 64.7856 113.568 65.5836 113.568H122.197C122.995 113.568 123.647 114.22 123.647 115.018V117.984C123.647 118.782 122.995 119.434 122.197 119.434Z" fill="#444444"/>
<path d="M122.197 129.388H87.6881C86.8901 129.388 86.2383 128.736 86.2383 127.938V124.971C86.2383 124.173 86.8901 123.521 87.6881 123.521H122.197C122.995 123.521 123.647 124.173 123.647 124.971V127.938C123.647 128.736 122.995 129.388 122.197 129.388Z" fill="#444444"/>
<path d="M122.196 151.708H89.609C88.811 151.708 88.1592 151.056 88.1592 150.258V147.295C88.1592 146.497 88.811 145.845 89.609 145.845H122.196C122.994 145.845 123.646 146.497 123.646 147.295V150.258C123.646 151.056 122.994 151.708 122.196 151.708Z" fill="#444444"/>
<path d="M122.196 161.662H102.789C101.991 161.662 101.339 161.011 101.339 160.213V157.246C101.339 156.448 101.991 155.796 102.789 155.796H122.196C122.994 155.796 123.646 156.448 123.646 157.246V160.213C123.646 161.011 122.994 161.662 122.196 161.662Z" fill="#444444"/>
<defs>
<clipPath id="clip0_1875:69252">
<rect width="158.377" height="158.377" fill="white" transform="translate(97.4512 102.726)"/>
</clipPath>
</defs>
</svg>
