<?xml version="1.0" encoding="UTF-8" standalone="no"?>
<svg
   xmlns:dc="http://purl.org/dc/elements/1.1/"
   xmlns:cc="http://creativecommons.org/ns#"
   xmlns:rdf="http://www.w3.org/1999/02/22-rdf-syntax-ns#"
   xmlns:svg="http://www.w3.org/2000/svg"
   xmlns="http://www.w3.org/2000/svg"
   viewBox="0 0 1000 666.66669"
   height="666.66669"
   width="1000"
   xml:space="preserve"
   id="svg2"
   version="1.1"><metadata
     id="metadata8"><rdf:RDF><cc:Work
         rdf:about=""><dc:format>image/svg+xml</dc:format><dc:type
           rdf:resource="http://purl.org/dc/dcmitype/StillImage" /></cc:Work></rdf:RDF></metadata><defs
     id="defs6" /><g
     transform="matrix(1.3333333,0,0,-1.3333333,0,666.66667)"
     id="g10"><g
       transform="scale(0.1)"
       id="g12"><path
         id="path14"
         style="fill:#f9ede5;fill-opacity:1;fill-rule:nonzero;stroke:none"
         d="M 0,0 H 7500 V 5000 H 0 V 0" /><path
         id="path16"
         style="fill:#f7d2ba;fill-opacity:1;fill-rule:nonzero;stroke:none"
         d="m 6138.62,1988.14 c 0,0 -84.79,101.4 -235.96,40.56 0,0 -51.62,82.96 -162.24,55.3 0,0 -73.74,169.61 -258.1,169.61 -184.35,0 -256.26,-164.07 -256.26,-164.07 0,0 -182.51,33.18 -261.77,-101.4 h 1174.33" /><path
         id="path18"
         style="fill:#f7d2ba;fill-opacity:1;fill-rule:nonzero;stroke:none"
         d="m 3015.55,781.051 h 1468.9 c 587.29,276.119 993.93,872.959 993.93,1564.879 0,954.56 -773.83,1728.38 -1728.38,1728.38 -954.56,0 -1728.37,-773.82 -1728.37,-1728.38 0,-691.92 406.63,-1288.76 993.92,-1564.879" /><path
         id="path20"
         style="fill:#f9ede5;fill-opacity:1;fill-rule:nonzero;stroke:none"
         d="m 2680,1508.06 c -6.35,-28.28 -17,-55.57 -29.56,-82.04 -12.73,-26.42 -28.14,-51.8 -46.22,-75.58 -36.19,-47.3 -84.63,-88.07 -142.45,-112.18 -28.79,-12.03 -59.49,-20.04 -90.64,-23.54 -31.17,-3.46 -62.5,-2.3 -93.22,1.43 -15.25,2.3 -30.55,4.71 -45.35,8.65 -15.39,3.48 -28.76,7.34 -42.63,11.08 l -82.68,23.22 c -110.07,31.21 -219.13,64.44 -328.77,93.27 -54.83,14.28 -109.84,27.39 -165.47,37.06 -55.67,9.69 -111.9,15.69 -169.68,13.01 6.9,2.02 13.86,3.99 20.88,5.85 7.01,1.89 14.05,3.99 21.21,5.13 14.29,2.41 28.72,5.44 43.23,6.59 14.52,1.75 29.14,2.98 43.72,3.28 l 21.95,0.7 21.89,-0.3 c 58.47,-1.16 116.47,-8.13 173.73,-17.49 114.47,-19.38 226.15,-48.41 336.51,-79.8 l 82.55,-24.18 c 28.22,-8.68 52.73,-15.79 78.96,-20.6 25.96,-4.43 52.11,-6.44 78.13,-5.57 25.96,1.37 51.7,5.77 76.62,13.65 49.98,15.51 96.13,45.29 135.92,83.47 39.68,38.43 73.95,84.19 101.37,134.89" /><path
         id="path22"
         style="fill:#f9b138;fill-opacity:1;fill-rule:nonzero;stroke:none"
         d="m 1260.38,831.621 h -102.81 v 739.009 h 102.81 V 831.621" /><path
         id="path24"
         style="fill:#83c15b;fill-opacity:1;fill-rule:nonzero;stroke:none"
         d="m 1208.97,2863.24 c 238.67,0 333.37,-771.63 369.49,-1262.86 15.78,-214.74 -154.17,-397.59 -369.49,-397.59 v 0 0 c -215.314,0 -385.259,182.85 -369.474,397.59 36.109,491.23 130.817,1262.86 369.474,1262.86" /><path
         id="path26"
         style="fill:#68ad40;fill-opacity:1;fill-rule:nonzero;stroke:none"
         d="m 1578.46,1600.38 c -36.12,491.23 -130.82,1262.86 -369.49,1262.86 -3.43,0 -6.83,-0.2 -10.21,-0.52 117.44,-252.9 173.4,-748.76 199.28,-1100.73 15.78,-214.73 -154.17,-397.59 -369.48,-397.59 h -0.01 v 0 c -50.976,0 -99.362,10.36 -143.394,28.86 63.059,-113.12 183.814,-190.47 323.814,-190.47 v 0 0 c 215.32,0 385.27,182.85 369.49,397.59" /><path
         id="path28"
         style="fill:#f9b138;fill-opacity:1;fill-rule:nonzero;stroke:none"
         d="m 1742.71,831.621 h -74.85 v 503.019 h 74.85 V 831.621" /><path
         id="path30"
         style="fill:#83c15b;fill-opacity:1;fill-rule:nonzero;stroke:none"
         d="m 1705.29,2275.85 c 173.78,0 242.74,-561.86 269.03,-919.54 11.5,-156.36 -112.25,-289.5 -269.03,-289.5 v 0 0 c -156.78,0 -280.53,133.14 -269.04,289.5 26.3,357.68 95.26,919.54 269.04,919.54" /><path
         id="path32"
         style="fill:#68ad40;fill-opacity:1;fill-rule:nonzero;stroke:none"
         d="m 1974.32,1356.31 c -26.29,357.68 -95.25,919.54 -269.03,919.54 -2.5,0 -4.98,-0.15 -7.44,-0.38 85.51,-184.14 126.26,-545.21 145.1,-801.49 11.5,-156.35 -112.25,-289.5 -269.03,-289.5 v 0 0 c -37.12,0 -72.36,7.54 -104.42,21.01 45.92,-82.36 133.84,-138.68 235.79,-138.68 v 0 0 c 156.78,0 280.53,133.14 269.03,289.5" /><path
         id="path34"
         style="fill:#f9b138;fill-opacity:1;fill-rule:nonzero;stroke:none"
         d="m 6274.46,915.039 h -79.94 v 537.151 h 79.94 V 915.039" /><path
         id="path36"
         style="fill:#83c15b;fill-opacity:1;fill-rule:nonzero;stroke:none"
         d="m 6234.49,2457.28 c -185.57,0 -259.22,-599.99 -287.29,-981.95 -12.28,-166.97 119.87,-309.15 287.29,-309.15 v 0 0 c 167.42,0 299.56,142.18 287.29,309.15 -28.08,381.96 -101.71,981.95 -287.29,981.95" /><path
         id="path38"
         style="fill:#68ad40;fill-opacity:1;fill-rule:nonzero;stroke:none"
         d="m 5947.2,1475.33 c 28.07,381.96 101.72,981.95 287.29,981.95 2.67,0 5.31,-0.16 7.94,-0.41 -91.31,-196.65 -134.82,-582.21 -154.94,-855.87 -12.28,-166.98 119.86,-309.15 287.29,-309.15 v 0 0 c 39.64,0 77.26,8.04 111.5,22.43 -49.03,-87.95 -142.93,-148.1 -251.79,-148.1 v 0 0 c -167.42,0 -299.57,142.18 -287.29,309.15" /><path
         id="path40"
         style="fill:#f9b138;fill-opacity:1;fill-rule:nonzero;stroke:none"
         d="m 5923.83,915.039 h -51.48 v 345.901 h 51.48 V 915.039" /><path
         id="path42"
         style="fill:#83c15b;fill-opacity:1;fill-rule:nonzero;stroke:none"
         d="m 5898.09,1908.15 c -119.5,0 -166.92,-386.35 -185,-632.31 -7.9,-107.52 77.19,-199.08 185,-199.08 v 0 0 c 107.81,0 192.91,91.56 185,199.08 -18.08,245.96 -65.5,632.31 -185,632.31" /><path
         id="path44"
         style="fill:#68ad40;fill-opacity:1;fill-rule:nonzero;stroke:none"
         d="m 5713.09,1275.84 c 18.08,245.96 65.5,632.31 185,632.31 1.72,0 3.42,-0.09 5.11,-0.25 -58.8,-126.63 -86.82,-374.91 -99.77,-551.14 -7.91,-107.52 77.19,-199.07 185,-199.07 v 0 0 c 25.53,0 49.75,5.18 71.79,14.44 -31.57,-56.64 -92.03,-95.37 -162.13,-95.37 v 0 0 c -107.81,0 -192.9,91.56 -185,199.08" /><path
         id="path46"
         style="fill:#83c15b;fill-opacity:1;fill-rule:nonzero;stroke:none"
         d="M 847.438,781.051 H 6652.57 c 37.09,0 67.43,30.351 67.43,67.441 v 0 c 0,37.09 -30.34,67.43 -67.43,67.43 H 847.438 c -37.09,0 -67.438,-30.34 -67.438,-67.43 v 0 c 0,-37.09 30.348,-67.441 67.438,-67.441" /><path
         id="path48"
         style="fill:#68ad40;fill-opacity:1;fill-rule:nonzero;stroke:none"
         d="M 6652.57,848.492 H 847.438 c -24.817,0 -46.559,13.61 -58.266,33.707 -5.793,-9.937 -9.172,-21.437 -9.172,-33.707 0,-37.09 30.348,-67.441 67.438,-67.441 H 6652.57 c 37.09,0 67.43,30.351 67.43,67.441 0,12.27 -3.38,23.77 -9.17,33.707 -11.71,-20.097 -33.45,-33.707 -58.26,-33.707" /><path
         id="path50"
         style="fill:#83c15b;fill-opacity:1;fill-rule:nonzero;stroke:none"
         d="m 6369.8,915.922 c 0,0 -9.11,87.368 -54.66,127.228 -45.57,39.87 -75.18,-42.14 -75.18,-42.14 0,0 -29.62,61.05 48.98,95.1 78.59,34.06 111.63,-120.188 111.63,-120.188 0,0 9.11,51.848 -7.98,104.248 -17.08,52.4 -35.04,81.44 -72.48,68.91 0,0 7.56,18.22 49.13,25.06 41.57,6.84 80.3,-108.2 72.33,-186.8 0,0 27.9,120.17 48.41,140.67 20.5,20.51 58.56,-41.57 58.56,-41.57 0,0 -21.35,5.51 -30.28,5.6 -8.92,0.09 -44.23,-108.11 -44.23,-108.11 0,0 47.84,53.53 66.07,55.81 18.22,2.27 41,-58.67 41,-58.67 0,0 -40.44,17.66 -55.82,17.66 -15.37,0 -47.26,-82.808 -47.26,-82.808 H 6369.8" /><path
         id="path52"
         style="fill:#ffffff;fill-opacity:1;fill-rule:nonzero;stroke:none"
         d="m 6242.81,1028.92 c 0,0 1.33,3.89 4.48,10.38 3.22,6.41 7.98,15.66 15.99,25.26 3.98,4.81 8.84,9.64 14.88,13.7 3.03,1.94 6.31,3.98 10.17,5.01 3.98,1.1 8.13,0.98 12.14,0.13 8.05,-1.77 15.2,-6.22 21.68,-11.29 6.48,-5.14 12.38,-11.06 17.81,-17.35 5.37,-6.36 10.29,-13.04 14.75,-19.9 2.22,-3.45 4.3,-6.81 6.28,-10.48 1.82,-3.47 3.42,-7.17 4.89,-10.85 2.84,-7.27 4.92,-14.46 6.86,-21.26 1.87,-6.84 3.55,-13.309 4.97,-19.309 2.9,-11.992 4.74,-22.109 6.12,-29.16 1.32,-7.071 1.92,-11.129 1.92,-11.129 0,0 -1.01,3.969 -2.78,10.93 -1.74,6.98 -4.46,16.867 -7.75,28.707 -3.3,11.832 -7.48,25.582 -13.01,39.761 -1.43,3.45 -2.96,6.91 -4.88,10.44 -1.81,3.27 -3.99,6.72 -6.18,10.02 -4.43,6.65 -9.35,13.13 -14.65,19.27 -5.21,6.19 -10.87,12.01 -17,16.99 -6.11,4.93 -12.82,9.13 -19.88,10.76 -3.49,0.82 -7.1,0.84 -10.3,0.14 -3.36,-0.75 -6.42,-2.49 -9.37,-4.21 -5.82,-3.59 -10.71,-8.07 -14.74,-12.6 -8.11,-9.07 -13.61,-17.78 -17.14,-23.99 -3.55,-6.23 -5.26,-9.97 -5.26,-9.97" /><path
         id="path54"
         style="fill:#ffffff;fill-opacity:1;fill-rule:nonzero;stroke:none"
         d="m 6349.31,1159.72 c 0,0 0.98,0.07 2.85,-0.02 1.85,-0.07 4.59,-0.25 8.02,-0.93 3.43,-0.6 7.53,-1.79 12.06,-3.63 4.56,-1.78 9.38,-4.66 14.07,-8.5 4.78,-3.76 8.99,-8.96 12.69,-14.85 0.86,-1.52 1.74,-3.06 2.62,-4.61 0.79,-1.6 1.45,-3.29 2.19,-4.97 1.63,-3.33 2.38,-7.01 3.53,-10.49 1.97,-7.24 3.6,-14.88 5.02,-22.54 1.39,-7.7 2.72,-15.53 3.83,-23.38 2.11,-15.73 3.8,-31.48 5.2,-46.27 1.43,-14.78 2.22,-28.62 2.99,-40.479 0.79,-11.84 1.04,-21.75 1.34,-28.66 0.18,-6.93 0.29,-10.891 0.29,-10.891 0,0 -1.67,15.738 -4.18,39.352 -1.28,11.789 -2.78,25.538 -4.38,40.278 -1.57,14.73 -3.49,30.42 -5.77,46.04 -1,7.82 -2.22,15.61 -3.5,23.26 -1.32,7.67 -2.8,15.05 -4.62,22.16 -1.11,3.57 -1.84,7.09 -3.22,10.26 -0.63,1.61 -1.19,3.25 -1.88,4.8 -0.78,1.51 -1.56,3 -2.31,4.48 -3.29,5.7 -7.09,10.82 -11.51,14.58 -4.37,3.8 -8.79,6.88 -13.1,8.89 -4.27,2.07 -8.22,3.5 -11.56,4.31 -6.66,1.76 -10.67,1.81 -10.67,1.81" /><path
         id="path56"
         style="fill:#ffffff;fill-opacity:1;fill-rule:nonzero;stroke:none"
         d="m 6526.04,1102 c 0,0 -2.83,1.22 -7.8,3.35 -2.48,1.04 -5.52,2.28 -9.04,3.48 -1.77,0.59 -3.66,1.2 -5.65,1.59 -0.96,0.21 -2.02,0.34 -2.82,0.27 0.27,0.19 -0.56,-0.99 -0.94,-1.98 -1.77,-4.12 -3.33,-8.91 -4.95,-13.93 -1.56,-5.05 -3.21,-10.39 -4.92,-15.89 -3.35,-11.07 -6.92,-22.86 -10.5,-34.66 -3.61,-11.8 -7.22,-23.59 -10.6,-34.65 -3.5,-11.029 -6.76,-21.33 -9.55,-30.15 -2.77,-8.828 -5.32,-16.121 -6.98,-21.258 -1.75,-5.113 -2.75,-8.043 -2.75,-8.043 0,0 0.69,3.012 1.9,8.293 1.3,5.226 2.99,12.769 5.37,21.726 2.38,8.942 5.02,19.422 8.15,30.562 3.09,11.17 6.57,23 10.11,34.84 3.63,11.79 7.3,23.59 11.04,34.56 1.82,5.51 3.74,10.77 5.61,15.76 1.89,4.98 3.66,9.67 5.77,13.94 0.27,0.54 0.57,1.08 0.89,1.61 0.25,0.36 0.98,1.64 2.1,1.64 1.41,0.06 2.53,-0.21 3.58,-0.52 2.13,-0.61 4,-1.39 5.74,-2.14 3.48,-1.51 6.42,-3.01 8.82,-4.25 4.8,-2.53 7.42,-4.15 7.42,-4.15" /><path
         id="path58"
         style="fill:#ffffff;fill-opacity:1;fill-rule:nonzero;stroke:none"
         d="m 6571.7,993.602 c 0,0 -7.01,5.277 -17.53,13.178 -2.62,1.98 -5.45,4.13 -8.49,6.32 -3.03,2.15 -6.3,4.48 -9.64,6.46 l -1.25,0.69 -0.52,0.2 -0.27,0.12 -0.12,0.05 -0.07,0.02 -0.03,0.02 c -0.13,0.02 1.03,-0.13 0.52,-0.07 -0.22,-0.03 -0.62,-0.01 -0.69,-0.09 0.01,-0.11 0.04,-0.16 0.04,-0.16 l -0.95,-0.65 c -1.51,-1.17 -3.03,-2.63 -4.55,-4.08 -3,-2.95 -5.95,-6.17 -8.85,-9.41 -5.87,-6.43 -11.57,-13.079 -16.98,-19.251 -5.4,-6.179 -10.44,-11.937 -14.78,-16.879 -4.28,-4.98 -8.05,-8.988 -10.57,-11.879 -2.59,-2.832 -4.08,-4.453 -4.08,-4.453 0,0 1.19,1.852 3.39,5.012 2.24,3.121 5.29,7.691 9.27,12.93 3.97,5.242 8.53,11.441 13.7,17.84 5.13,6.449 10.8,13.16 16.67,19.74 2.98,3.25 6,6.46 9.19,9.51 1.6,1.52 3.22,3 5.11,4.35 0.59,0.35 0.87,0.61 1.71,1.02 0.48,0.22 0.99,0.38 1.48,0.49 0.42,0.09 0.56,0.05 0.86,0.08 2.42,-0.61 2.69,-1.11 3.82,-1.71 3.67,-2.31 6.68,-4.88 9.62,-7.3 2.92,-2.42 5.6,-4.77 8.08,-6.95 4.96,-4.34 8.84,-8.23 11.63,-10.871 2.76,-2.68 4.28,-4.277 4.28,-4.277" /><path
         id="path60"
         style="fill:#68ad40;fill-opacity:1;fill-rule:nonzero;stroke:none"
         d="m 5161.59,915.922 c 0,0 17.22,165.038 103.28,240.348 86.07,75.3 142.01,-79.61 142.01,-79.61 0,0 55.94,115.33 -92.52,179.66 -148.46,64.32 -210.86,-227.07 -210.86,-227.07 0,0 -17.22,97.97 15.05,196.95 32.28,98.98 66.21,153.84 136.93,130.17 0,0 -14.28,34.43 -92.81,47.34 -78.54,12.91 -151.69,-204.41 -136.63,-352.87 0,0 -52.72,226.99 -91.45,265.72 -38.73,38.73 -110.61,-78.53 -110.61,-78.53 0,0 40.33,10.43 57.18,10.59 16.86,0.17 83.56,-204.23 83.56,-204.23 0,0 -90.37,101.12 -124.8,105.42 -34.43,4.3 -77.46,-110.81 -77.46,-110.81 0,0 76.38,33.35 105.43,33.35 29.04,0 89.3,-156.428 89.3,-156.428 h 204.4" /><path
         id="path62"
         style="fill:#ffffff;fill-opacity:1;fill-rule:nonzero;stroke:none"
         d="m 5401.5,1129.38 c 0,0 -2.53,7.35 -8.46,19.6 -6.09,12.12 -15.09,29.59 -30.21,47.74 -7.5,9.06 -16.7,18.2 -28.11,25.88 -5.74,3.64 -11.93,7.5 -19.2,9.45 -7.53,2.07 -15.37,1.86 -22.95,0.25 -15.19,-3.34 -28.71,-11.76 -40.94,-21.33 -12.25,-9.7 -23.4,-20.91 -33.66,-32.79 -10.14,-12 -19.44,-24.63 -27.84,-37.56 -4.21,-6.55 -8.14,-12.89 -11.88,-19.83 -3.44,-6.54 -6.47,-13.54 -9.24,-20.5 -5.36,-13.71 -9.29,-27.29 -12.97,-40.15 -3.52,-12.91 -6.69,-25.14 -9.36,-36.48 -5.48,-22.65 -8.97,-41.762 -11.57,-55.078 -2.49,-13.352 -3.65,-21.023 -3.65,-21.023 0,0 1.93,7.511 5.28,20.66 3.28,13.172 8.44,31.851 14.63,54.221 6.23,22.35 14.13,48.33 24.59,75.11 2.69,6.51 5.58,13.06 9.19,19.73 3.43,6.18 7.55,12.69 11.69,18.92 8.37,12.56 17.67,24.81 27.66,36.4 9.86,11.69 20.55,22.69 32.12,32.1 11.55,9.3 24.23,17.24 37.57,20.32 6.59,1.55 13.41,1.59 19.46,0.25 6.34,-1.4 12.12,-4.68 17.69,-7.94 10.98,-6.78 20.22,-15.24 27.86,-23.78 15.3,-17.14 25.7,-33.6 32.36,-45.35 6.71,-11.75 9.94,-18.82 9.94,-18.82" /><path
         id="path64"
         style="fill:#ffffff;fill-opacity:1;fill-rule:nonzero;stroke:none"
         d="m 5200.32,1376.46 c 0,0 -1.86,0.13 -5.38,-0.03 -3.5,-0.13 -8.68,-0.47 -15.15,-1.76 -6.49,-1.13 -14.22,-3.38 -22.79,-6.85 -8.61,-3.37 -17.71,-8.81 -26.58,-16.05 -9.04,-7.11 -16.99,-16.95 -23.98,-28.07 -1.63,-2.86 -3.28,-5.77 -4.95,-8.71 -1.49,-3.03 -2.72,-6.22 -4.12,-9.38 -3.08,-6.29 -4.51,-13.26 -6.69,-19.81 -3.7,-13.68 -6.78,-28.12 -9.48,-42.59 -2.63,-14.54 -5.13,-29.33 -7.23,-44.17 -3.98,-29.7 -7.18,-59.47 -9.8,-87.4 -2.71,-27.92 -4.21,-54.07 -5.67,-76.45 -1.48,-22.39 -1.96,-41.088 -2.53,-54.159 -0.34,-13.09 -0.53,-20.562 -0.53,-20.562 0,0 3.15,29.73 7.88,74.331 2.42,22.26 5.24,48.25 8.27,76.09 2.98,27.83 6.58,57.46 10.9,86.96 1.89,14.79 4.19,29.5 6.6,43.95 2.51,14.49 5.29,28.42 8.73,41.84 2.1,6.77 3.5,13.41 6.1,19.4 1.2,3.04 2.25,6.14 3.55,9.08 1.48,2.84 2.93,5.66 4.37,8.44 6.22,10.79 13.37,20.45 21.73,27.56 8.25,7.15 16.62,12.98 24.75,16.8 8.09,3.9 15.53,6.6 21.84,8.13 12.59,3.32 20.16,3.41 20.16,3.41" /><path
         id="path66"
         style="fill:#ffffff;fill-opacity:1;fill-rule:nonzero;stroke:none"
         d="m 4866.46,1267.43 c 0,0 5.36,2.31 14.73,6.33 4.7,1.96 10.43,4.3 17.09,6.57 3.33,1.13 6.92,2.27 10.66,3 1.83,0.4 3.82,0.65 5.33,0.52 -0.5,0.36 1.07,-1.88 1.77,-3.74 3.36,-7.79 6.29,-16.84 9.35,-26.32 2.96,-9.54 6.08,-19.61 9.31,-30.02 6.33,-20.9 13.07,-43.18 19.82,-65.48 6.83,-22.27 13.65,-44.55 20.05,-65.44 6.59,-20.84 12.74,-40.28 18.03,-56.95 5.21,-16.69 10.05,-30.46 13.18,-40.17 3.31,-9.66 5.2,-15.179 5.2,-15.179 0,0 -1.3,5.687 -3.59,15.64 -2.46,9.899 -5.65,24.149 -10.14,41.059 -4.5,16.9 -9.49,36.7 -15.41,57.74 -5.81,21.07 -12.41,43.45 -19.09,65.8 -6.85,22.3 -13.79,44.57 -20.86,65.29 -3.43,10.39 -7.07,20.35 -10.59,29.77 -3.59,9.41 -6.92,18.26 -10.91,26.35 -0.51,1.01 -1.06,2.02 -1.68,3.02 -0.47,0.68 -1.83,3.09 -3.96,3.11 -2.68,0.1 -4.77,-0.39 -6.77,-0.99 -4.02,-1.15 -7.54,-2.61 -10.84,-4.04 -6.57,-2.86 -12.12,-5.68 -16.66,-8.03 -9.05,-4.76 -14.02,-7.84 -14.02,-7.84" /><path
         id="path68"
         style="fill:#ffffff;fill-opacity:1;fill-rule:nonzero;stroke:none"
         d="m 4780.22,1062.67 c 0,0 13.25,9.96 33.11,24.89 4.94,3.74 10.28,7.8 16.04,11.92 5.73,4.08 11.9,8.47 18.21,12.22 l 2.34,1.3 1.01,0.39 0.49,0.2 0.24,0.11 0.13,0.05 0.06,0.03 c 0.25,0.05 -1.97,-0.25 -0.98,-0.14 0.41,-0.06 1.16,-0.02 1.29,-0.17 -0.02,-0.2 -0.07,-0.3 -0.07,-0.3 l 1.81,-1.24 c 2.84,-2.21 5.71,-4.94 8.57,-7.69 5.69,-5.58 11.26,-11.65 16.74,-17.77 11.09,-12.16 21.83,-24.71 32.05,-36.36 10.21,-11.67 19.76,-22.57 27.93,-31.9 8.1,-9.41 15.2,-16.97 19.97,-22.429 4.9,-5.359 7.71,-8.422 7.71,-8.422 0,0 -2.25,3.5 -6.39,9.461 -4.23,5.9 -10.01,14.53 -17.52,24.43 -7.52,9.9 -16.11,21.61 -25.88,33.71 -9.7,12.17 -20.4,24.85 -31.49,37.28 -5.64,6.14 -11.34,12.21 -17.36,17.97 -3.02,2.88 -6.09,5.65 -9.67,8.21 -1.11,0.66 -1.65,1.17 -3.23,1.94 -0.9,0.39 -1.86,0.71 -2.78,0.93 -0.79,0.15 -1.07,0.08 -1.63,0.13 -4.57,-1.14 -5.1,-2.07 -7.2,-3.22 -6.94,-4.35 -12.62,-9.23 -18.18,-13.78 -5.52,-4.58 -10.59,-9.03 -15.27,-13.13 -9.37,-8.2 -16.71,-15.57 -21.98,-20.54 -5.2,-5.07 -8.07,-8.08 -8.07,-8.08" /><path
         id="path70"
         style="fill:#68ad40;fill-opacity:1;fill-rule:nonzero;stroke:none"
         d="m 2742.97,1241.83 c -179.99,0 -325.9,-145.91 -325.9,-325.908 h 651.82 c 0,179.998 -145.92,325.908 -325.92,325.908" /><path
         id="path72"
         style="fill:#83c15b;fill-opacity:1;fill-rule:nonzero;stroke:none"
         d="m 3036.01,1139.44 c -123.45,0 -223.53,-100.07 -223.53,-223.518 h 447.06 c 0,123.448 -100.08,223.518 -223.53,223.518" /><path
         id="path74"
         style="fill:#68ad40;fill-opacity:1;fill-rule:nonzero;stroke:none"
         d="m 4464.01,1204.16 c 159.19,0 288.25,-129.05 288.25,-288.238 h -576.49 c 0,159.188 129.05,288.238 288.24,288.238" /><path
         id="path76"
         style="fill:#83c15b;fill-opacity:1;fill-rule:nonzero;stroke:none"
         d="m 4204.85,1113.61 c 109.18,0 197.69,-88.51 197.69,-197.688 h -395.38 c 0,109.178 88.5,197.688 197.69,197.688" /><path
         id="path78"
         style="fill:#68ad40;fill-opacity:1;fill-rule:nonzero;stroke:none"
         d="m 2204.5,915.922 c 0,0 11.57,110.958 69.44,161.588 57.86,50.63 95.47,-53.53 95.47,-53.53 0,0 37.61,77.54 -62.2,120.79 -99.82,43.25 -141.77,-152.661 -141.77,-152.661 0,0 -11.57,65.871 10.13,132.411 21.7,66.54 44.5,103.43 92.05,87.51 0,0 -9.6,23.15 -62.4,31.83 -52.8,8.68 -101.98,-137.42 -91.86,-237.24 0,0 -35.44,152.62 -61.47,178.65 -26.04,26.04 -74.37,-52.8 -74.37,-52.8 0,0 27.11,7.01 38.45,7.12 11.32,0.12 56.17,-137.3 56.17,-137.3 0,0 -60.76,67.98 -83.9,70.87 -23.15,2.89 -52.08,-74.488 -52.08,-74.488 0,0 51.35,22.418 70.89,22.418 19.52,0 60.03,-105.168 60.03,-105.168 h 137.42" /><path
         id="path80"
         style="fill:#ffffff;fill-opacity:1;fill-rule:nonzero;stroke:none"
         d="m 2365.79,1059.42 c 0,0 -1.7,4.95 -5.69,13.19 -4.09,8.14 -10.14,19.89 -20.31,32.09 -5.04,6.09 -11.23,12.23 -18.9,17.4 -3.85,2.45 -8.01,5.04 -12.91,6.36 -5.06,1.38 -10.33,1.24 -15.42,0.16 -10.22,-2.25 -19.3,-7.91 -27.53,-14.34 -8.23,-6.52 -15.73,-14.06 -22.63,-22.04 -6.81,-8.07 -13.07,-16.56 -18.72,-25.26 -2.83,-4.39 -5.47,-8.66 -7.98,-13.33 -2.31,-4.39 -4.35,-9.1 -6.21,-13.78 -3.6,-9.22 -6.25,-18.35 -8.72,-27 -2.37,-8.67 -4.5,-16.89 -6.29,-24.518 -3.69,-15.223 -6.04,-28.071 -7.79,-37.02 -1.67,-8.98 -2.44,-14.141 -2.44,-14.141 0,0 1.29,5.047 3.54,13.891 2.21,8.848 5.67,21.418 9.84,36.457 4.19,15.021 9.5,32.491 16.53,50.491 1.81,4.38 3.76,8.78 6.18,13.26 2.31,4.16 5.08,8.53 7.85,12.72 5.63,8.45 11.88,16.68 18.6,24.48 6.63,7.86 13.82,15.25 21.6,21.58 7.76,6.25 16.28,11.59 25.25,13.66 4.44,1.04 9.02,1.07 13.09,0.17 4.26,-0.95 8.15,-3.16 11.89,-5.34 7.39,-4.57 13.6,-10.25 18.73,-15.99 10.29,-11.52 17.28,-22.59 21.76,-30.49 4.51,-7.9 6.68,-12.66 6.68,-12.66" /><path
         id="path82"
         style="fill:#ffffff;fill-opacity:1;fill-rule:nonzero;stroke:none"
         d="m 2230.54,1225.54 c 0,0 -1.26,0.09 -3.62,-0.02 -2.36,-0.09 -5.84,-0.31 -10.18,-1.18 -4.37,-0.77 -9.57,-2.28 -15.32,-4.61 -5.8,-2.26 -11.91,-5.91 -17.88,-10.79 -6.08,-4.78 -11.42,-11.39 -16.12,-18.87 -1.1,-1.93 -2.2,-3.88 -3.32,-5.86 -1.01,-2.03 -1.83,-4.18 -2.78,-6.3 -2.07,-4.24 -3.02,-8.92 -4.49,-13.32 -2.49,-9.2 -4.56,-18.91 -6.38,-28.63 -1.76,-9.78 -3.44,-19.72 -4.85,-29.69 -2.68,-19.97 -4.83,-39.99 -6.6,-58.77 -1.82,-18.77 -2.83,-36.35 -3.81,-51.398 -0.99,-15.051 -1.32,-27.622 -1.7,-36.411 -0.22,-8.793 -0.36,-13.82 -0.36,-13.82 0,0 2.12,19.988 5.3,49.969 1.63,14.97 3.53,32.44 5.56,51.15 2.01,18.71 4.43,38.65 7.33,58.47 1.27,9.94 2.82,19.83 4.44,29.55 1.69,9.74 3.56,19.11 5.87,28.13 1.41,4.55 2.34,9.01 4.09,13.04 0.81,2.05 1.52,4.13 2.4,6.11 0.99,1.91 1.96,3.8 2.93,5.67 4.18,7.26 8.99,13.75 14.62,18.52 5.54,4.82 11.16,8.74 16.63,11.3 5.43,2.62 10.44,4.45 14.68,5.46 8.47,2.24 13.56,2.3 13.56,2.3" /><path
         id="path84"
         style="fill:#ffffff;fill-opacity:1;fill-rule:nonzero;stroke:none"
         d="m 2006.08,1152.25 c 0,0 3.6,1.54 9.91,4.24 3.15,1.32 7.01,2.9 11.49,4.43 2.23,0.75 4.65,1.51 7.16,2.01 1.23,0.26 2.57,0.44 3.59,0.35 -0.34,0.25 0.72,-1.27 1.19,-2.52 2.26,-5.23 4.23,-11.32 6.28,-17.68 2,-6.43 4.09,-13.2 6.26,-20.2 4.25,-14.04 8.79,-29.03 13.32,-44.01 4.59,-14.98 9.18,-29.95 13.48,-44 4.44,-14.01 8.57,-27.09 12.12,-38.292 3.51,-11.219 6.76,-20.476 8.87,-26.996 2.22,-6.492 3.49,-10.211 3.49,-10.211 0,0 -0.88,3.82 -2.41,10.508 -1.66,6.66 -3.8,16.242 -6.82,27.609 -3.02,11.362 -6.37,24.672 -10.36,38.822 -3.91,14.17 -8.34,29.21 -12.83,44.24 -4.61,14.99 -9.28,29.96 -14.02,43.89 -2.32,6.99 -4.75,13.69 -7.13,20.01 -2.4,6.33 -4.65,12.28 -7.33,17.72 -0.34,0.68 -0.72,1.36 -1.13,2.04 -0.31,0.44 -1.23,2.07 -2.67,2.08 -1.79,0.07 -3.2,-0.26 -4.55,-0.66 -2.69,-0.78 -5.06,-1.76 -7.28,-2.72 -4.42,-1.92 -8.15,-3.82 -11.2,-5.4 -6.09,-3.2 -9.43,-5.26 -9.43,-5.26" /><path
         id="path86"
         style="fill:#ffffff;fill-opacity:1;fill-rule:nonzero;stroke:none"
         d="m 1948.11,1014.58 c 0,0 8.9,6.69 22.25,16.73 3.33,2.52 6.92,5.25 10.78,8.02 3.86,2.74 8.01,5.69 12.24,8.21 l 1.59,0.88 0.67,0.25 0.33,0.15 0.17,0.07 0.08,0.04 0.04,0.02 c 0.17,0.02 -1.32,-0.18 -0.66,-0.1 0.27,-0.04 0.78,-0.01 0.87,-0.12 -0.01,-0.13 -0.05,-0.19 -0.05,-0.19 l 1.22,-0.84 c 1.91,-1.49 3.84,-3.32 5.76,-5.17 3.83,-3.76 7.57,-7.83 11.25,-11.95 7.46,-8.18 14.69,-16.61 21.55,-24.45 6.87,-7.841 13.28,-15.161 18.78,-21.439 5.44,-6.332 10.22,-11.41 13.43,-15.082 3.29,-3.597 5.17,-5.66 5.17,-5.66 0,0 -1.5,2.352 -4.29,6.36 -2.84,3.961 -6.73,9.773 -11.78,16.433 -5.05,6.649 -10.83,14.518 -17.4,22.648 -6.51,8.19 -13.71,16.71 -21.17,25.06 -3.78,4.13 -7.62,8.22 -11.66,12.09 -2.04,1.94 -4.1,3.8 -6.5,5.52 -0.75,0.45 -1.11,0.78 -2.18,1.3 -0.61,0.27 -1.25,0.48 -1.87,0.62 -0.53,0.11 -0.72,0.06 -1.1,0.1 -3.07,-0.77 -3.42,-1.4 -4.83,-2.17 -4.67,-2.93 -8.49,-6.2 -12.23,-9.26 -3.71,-3.08 -7.11,-6.07 -10.26,-8.83 -6.3,-5.51 -11.23,-10.46 -14.78,-13.81 -3.5,-3.41 -5.42,-5.43 -5.42,-5.43" /><path
         id="path88"
         style="fill:#f7d2ba;fill-opacity:1;fill-rule:nonzero;stroke:none"
         d="m 1478.8,2447.63 c 0,0 76.15,91.05 211.9,36.41 0,0 46.36,74.5 145.69,49.67 0,0 66.22,152.31 231.77,152.31 165.56,0 230.12,-147.34 230.12,-147.34 0,0 163.9,29.8 235.08,-91.05 H 1478.8" /><path
         id="path90"
         style="fill:#3272ce;fill-opacity:1;fill-rule:nonzero;stroke:none"
         d="m 5688.6,1023.28 196.97,-16.9 6.58,-28.341 -267.49,-62.117 -14.16,89.228 78.1,18.13" /><path
         id="path92"
         style="fill:#ffffff;fill-opacity:1;fill-rule:nonzero;stroke:none"
         d="m 5777.19,998.129 c -0.59,-0.149 -1.2,-0.188 -1.84,-0.098 -2.73,0.367 -4.66,2.879 -4.3,5.609 l 2.81,21.02 c 0.36,2.73 2.88,4.63 5.6,4.3 2.75,-0.39 4.67,-2.9 4.31,-5.63 l -2.8,-21.01 c -0.28,-2.1 -1.84,-3.73 -3.78,-4.191" /><path
         id="path94"
         style="fill:#ffffff;fill-opacity:1;fill-rule:nonzero;stroke:none"
         d="m 5752.37,1000.01 c -0.58,-0.139 -1.2,-0.178 -1.82,-0.1 -2.75,0.37 -4.67,2.88 -4.31,5.63 l 2.8,21 c 0.36,2.74 2.89,4.64 5.62,4.3 2.73,-0.37 4.66,-2.88 4.3,-5.62 l -2.81,-21.01 c -0.27,-2.11 -1.83,-3.73 -3.78,-4.2" /><path
         id="path96"
         style="fill:#ffffff;fill-opacity:1;fill-rule:nonzero;stroke:none"
         d="m 5727.57,1001.91 c -0.59,-0.14 -1.21,-0.18 -1.84,-0.1 -2.74,0.38 -4.66,2.89 -4.29,5.62 l 2.79,21.01 c 0.36,2.74 2.91,4.64 5.61,4.3 2.75,-0.38 4.67,-2.89 4.3,-5.62 l -2.79,-21.01 c -0.29,-2.11 -1.84,-3.73 -3.78,-4.2" /><path
         id="path98"
         style="fill:#f8ab98;fill-opacity:1;fill-rule:nonzero;stroke:none"
         d="m 5134.5,2572.59 c 0,0 84.86,-65.02 126.51,-56.4 75.78,15.69 314.16,477.93 314.16,477.93 l -119.39,6.59 -209.72,-276.08 -111.56,-152.04" /><path
         id="path100"
         style="fill:#f5927e;fill-opacity:1;fill-rule:nonzero;stroke:none"
         d="m 5134.5,2572.59 111.56,152.04 -77.85,-175.08 c -19.52,12.22 -33.71,23.04 -33.71,23.04" /><path
         id="path102"
         style="fill:#f8ab98;fill-opacity:1;fill-rule:nonzero;stroke:none"
         d="m 5426.35,3010.93 c 0,0 -27.6,11.86 -10.44,41.02 l 10.56,17.96 c 6.92,11.76 22.27,15.31 33.66,7.79 l 14.24,-9.41 -48.02,-57.36" /><path
         id="path104"
         style="fill:#f8ab98;fill-opacity:1;fill-rule:nonzero;stroke:none"
         d="m 5467.04,3073.74 c 0,0 -56.12,-76.79 -52.45,-89.16 3.66,-12.39 103.55,-82.1 120.78,-65.23 17.24,16.88 53.82,81.1 47.16,90.86 -6.67,9.77 -97.36,76.96 -115.49,63.53" /><path
         id="path106"
         style="fill:#3272ce;fill-opacity:1;fill-rule:nonzero;stroke:none"
         d="m 4927.59,2767.89 c 54.71,-55.95 117.41,-130.67 207.3,-202.03 l 127.82,179.76 c -72.39,69.24 -165.5,141.17 -215.36,195.21 -86.91,94.22 -178.77,88.03 -210.56,1.25 -24.71,-67.41 90.8,-174.19 90.8,-174.19" /><path
         id="path108"
         style="fill:#3272ce;fill-opacity:1;fill-rule:nonzero;stroke:none"
         d="m 5405.55,2934.58 -159.49,-209.95 -111.17,-158.77 c 0,0 84.47,-58.29 126.12,-49.67 49.87,10.33 170.15,214.05 246.58,352.15 l -102.04,66.24" /><path
         id="path110"
         style="fill:#3d425b;fill-opacity:1;fill-rule:nonzero;stroke:none"
         d="m 4833.32,3372.83 c 0,0 -111.43,73.45 -179.21,-6.52 -106.67,-125.84 48.33,-362.23 -32.92,-398.75 0,0 76.67,-6.67 112.92,67.08 36.25,73.75 3.96,155.45 3.96,155.45 0,0 29.37,-29.41 32.5,-48.78 0,0 29.37,19.37 19.37,103.12 -10,83.75 43.38,128.4 43.38,128.4" /><path
         id="path112"
         style="fill:#4782e2;fill-opacity:1;fill-rule:nonzero;stroke:none"
         d="m 4784.38,3278.81 c 0,0 -27.77,23.33 7.49,73.75 24.83,35.5 55,21.87 55,21.87 l -62.49,-95.62" /><path
         id="path114"
         style="fill:#f8ab98;fill-opacity:1;fill-rule:nonzero;stroke:none"
         d="m 3677.8,1885.06 57.14,-25.08 -35.52,-77.07 -60.97,32.29 39.35,69.86" /><path
         id="path116"
         style="fill:#3272ce;fill-opacity:1;fill-rule:nonzero;stroke:none"
         d="m 3638.45,1815.2 -145.46,-133.89 -25.34,14.28 134.77,239.25 75.38,-49.78 -39.35,-69.86" /><path
         id="path118"
         style="fill:#ffffff;fill-opacity:1;fill-rule:nonzero;stroke:none"
         d="m 3560.08,1766.84 c 0.29,0.52 0.68,1 1.17,1.41 2.12,1.77 5.27,1.5 7.05,-0.62 l 13.6,-16.25 c 1.78,-2.12 1.47,-5.26 -0.62,-7.04 -2.12,-1.77 -5.27,-1.5 -7.05,0.62 l -13.6,16.25 c -1.37,1.63 -1.51,3.87 -0.55,5.63" /><path
         id="path120"
         style="fill:#ffffff;fill-opacity:1;fill-rule:nonzero;stroke:none"
         d="m 3578.23,1783.86 c 0.29,0.52 0.68,1.01 1.16,1.42 2.12,1.77 5.27,1.5 7.05,-0.62 l 13.61,-16.25 c 1.78,-2.12 1.47,-5.27 -0.62,-7.04 -2.13,-1.78 -5.27,-1.5 -7.05,0.62 l -13.61,16.24 c -1.37,1.63 -1.51,3.88 -0.54,5.63" /><path
         id="path122"
         style="fill:#ffffff;fill-opacity:1;fill-rule:nonzero;stroke:none"
         d="m 3596.38,1800.88 c 0.29,0.53 0.68,1 1.16,1.41 2.13,1.78 5.28,1.5 7.05,-0.62 l 13.61,-16.24 c 1.78,-2.12 1.46,-5.27 -0.62,-7.04 -2.13,-1.78 -5.28,-1.5 -7.05,0.61 l -13.61,16.25 c -1.36,1.63 -1.51,3.88 -0.54,5.63" /><path
         id="path124"
         style="fill:#262a42;fill-opacity:1;fill-rule:nonzero;stroke:none"
         d="m 4550.78,2277 c 0,0 -73.34,-97.36 -108.78,-292.34 -23.39,-128.67 -118.98,-305.95 -135.97,-311.05 -17.01,-5.09 -628.23,211.45 -628.23,211.45 l -39.35,-69.86 c 0,0 547.23,-359.23 693.99,-398.89 154.88,-41.86 537.88,473.16 537.88,473.16 L 4550.78,2277" /><path
         id="path126"
         style="fill:#3d425b;fill-opacity:1;fill-rule:nonzero;stroke:none"
         d="m 4540.78,2233.67 c 0,0 -88.39,-271.95 251.55,-411.33 243.9,-100 364.07,-170.16 423.48,-201.11 22.11,-11.52 40.1,-29.49 51.63,-51.59 l 343.06,-564.49 78.1,18.13 c 0,0 -193.67,619.86 -244.66,698.05 -50.99,78.18 -396.65,430.75 -396.65,430.75 l -506.51,81.59" /><path
         id="path128"
         style="fill:#262a42;fill-opacity:1;fill-rule:nonzero;stroke:none"
         d="m 5105.42,3410.83 c 0,0 96.63,-75.62 5.36,-161.11 -91.26,-85.5 -86.69,83.58 -86.69,83.58 l 38.92,48.66 42.41,28.87" /><path
         id="path130"
         style="fill:#f5927e;fill-opacity:1;fill-rule:nonzero;stroke:none"
         d="m 4986.89,3062.63 c 0,0 -22.18,-20.71 -30.97,-64.91 0,0 -49.97,-12.88 -97.2,38.6 l 33.71,53.66 94.46,-27.35" /><path
         id="path132"
         style="fill:#f8ab98;fill-opacity:1;fill-rule:nonzero;stroke:none"
         d="m 5101.85,3301.2 c 0,0 41.16,-162.57 -28.67,-228.45 -44.76,-42.22 -180.75,17.23 -180.75,17.23 0,0 -38.48,40.69 -45.56,101.76 4.7,86.18 68.57,126.93 123.08,131.33 54.52,4.4 116.42,13.82 131.9,-21.87" /><path
         id="path134"
         style="fill:#f5927e;fill-opacity:1;fill-rule:nonzero;stroke:none"
         d="m 5022.6,3237.29 c 41.29,4 62.12,39.85 62.15,39.9 l -0.01,0.01 -22.53,30.39 c -0.48,0.32 -0.96,0.63 -1.45,0.94 -4.35,0.68 -43.8,6.9 -59.94,9.47 -11.3,1.79 -62.81,-12.15 -104.16,-24.11 -26.83,-21.43 -47.22,-54.93 -49.79,-102.15 6.88,-50.52 45.56,-101.76 45.56,-101.76 0,0 33.23,-32.79 94.46,-27.35 -49.41,18.71 -50.8,54.61 -39.19,95.52 11.51,40.6 33.58,75.14 74.9,79.14" /><path
         id="path136"
         style="fill:#3d425b;fill-opacity:1;fill-rule:nonzero;stroke:none"
         d="m 4880.6,3071.14 c 0,0 49.42,35.66 59.13,90.74 0,0 -53.78,33.76 -31.03,70.04 22.75,36.29 45.74,-5.16 51.66,-19.56 0,0 16.94,36.6 64.22,43.4 47.28,6.8 102.89,31.25 95.64,107.36 -7.24,76.11 -70.68,92.3 -70.68,92.3 0,0 -150.22,38.82 -222.08,-92.65 -7.91,-14.48 -17.32,-28.26 -29.81,-39.05 -11.06,-9.55 -23.94,-26.73 -25.97,-55.64 -2.31,-33.05 12.88,-65.2 38.95,-85.65 78.12,-61.32 69.97,-111.29 69.97,-111.29" /><path
         id="path138"
         style="fill:#ffffff;fill-opacity:1;fill-rule:nonzero;stroke:none"
         d="m 5000.68,3160.64 c 0,0 29.03,-50.7 -38.67,-84.2 0,0 15.68,-25.91 72.91,-21.62 57.23,4.3 91.3,82.68 88.69,127.7 -2.11,36.53 -82.22,3.94 -122.93,-21.88" /><path
         id="path140"
         style="fill:#ffffff;fill-opacity:1;fill-rule:nonzero;stroke:none"
         d="m 5001.61,3155.37 c -1.16,-0.21 -2.4,-0.04 -3.51,0.58 -29.1,16.05 -42.25,53.09 -42.8,54.66 -0.96,2.78 0.51,5.83 3.3,6.8 2.68,1.03 5.84,-0.49 6.81,-3.28 0.12,-0.35 12.4,-34.75 37.85,-48.8 2.59,-1.43 3.54,-4.69 2.1,-7.28 -0.81,-1.47 -2.22,-2.41 -3.75,-2.68" /><path
         id="path142"
         style="fill:#ffffff;fill-opacity:1;fill-rule:nonzero;stroke:none"
         d="m 4962.95,3071.17 c -1.6,-0.28 -3.3,0.16 -4.59,1.35 -37.4,34.78 -24.4,88.41 -23.83,90.67 0.73,2.87 3.6,4.59 6.51,3.89 2.85,-0.73 4.59,-3.63 3.88,-6.5 -0.13,-0.49 -11.97,-49.81 20.73,-80.22 2.16,-2.02 2.29,-5.4 0.28,-7.57 -0.82,-0.88 -1.88,-1.42 -2.98,-1.62" /><path
         id="path144"
         style="fill:#4782e2;fill-opacity:1;fill-rule:nonzero;stroke:none"
         d="m 4870.76,3055.65 c -33.58,19.93 -378.33,-339.4 -433.32,-919.34 -6.17,-65.03 424.98,-89.6 684.98,-4.7 0,0 -36.73,317.66 -36.73,504.7 0,183.33 -0.94,313.75 -92.79,352.39 -59.93,25.21 -96.39,51.67 -122.14,66.95" /><path
         id="path146"
         style="fill:#3272ce;fill-opacity:1;fill-rule:nonzero;stroke:none"
         d="m 4496.94,2444.67 373.99,-144.58 -313.69,314.36 c -22.03,-52.54 -42.47,-109.25 -60.3,-169.78" /><path
         id="path148"
         style="fill:#f8ab98;fill-opacity:1;fill-rule:nonzero;stroke:none"
         d="m 5610.5,1005.15 78.1,18.13 c 0,0 -193.67,619.86 -244.66,698.05 -21.21,32.5 -93.34,112.43 -170.39,194.73 l -2.13,0.18 -210.28,-214.34 v 0 c 74.78,-36.94 123.24,-64.3 154.67,-80.67 22.11,-11.51 40.1,-29.49 51.63,-51.59 l 343.06,-564.49" /><path
         id="path150"
         style="fill:#f5927e;fill-opacity:1;fill-rule:nonzero;stroke:none"
         d="m 5273.55,1916.06 c 0,0 -0.77,0.04 -2.19,0.12 L 5061.14,1701.9 v 0 c 30.12,-14.88 55.9,-28.17 78.09,-39.85 l 134.32,254.01" /><path
         id="path152"
         style="fill:#f5927e;fill-opacity:1;fill-rule:nonzero;stroke:none"
         d="m 4360.59,1760.21 c -24.8,-49.4 -47.15,-84.37 -54.56,-86.6 -17.01,-5.09 -628.23,211.45 -628.23,211.45 l -39.35,-69.86 c 0,0 547.23,-359.23 693.99,-398.89 68.86,-18.61 182.8,72.87 288.15,180.21 l -260,163.68 v 0.01" /><path
         id="path154"
         style="fill:#3d425b;fill-opacity:1;fill-rule:nonzero;stroke:none"
         d="m 5039.54,3258.53 c 0,0 -89.78,-45.01 -103.45,-149.86 -13.65,-104.86 -56.15,35.34 -45.32,116.91 10.84,81.56 148.77,32.95 148.77,32.95" /><path
         id="path156"
         style="fill:#ffffff;fill-opacity:1;fill-rule:nonzero;stroke:none"
         d="m 5491.6,1200.78 118.9,-195.63 78.1,18.13 c 0,0 -32.29,103.34 -73.96,230.95 l -123.04,-53.45" /><path
         id="path158"
         style="fill:#ffffff;fill-opacity:1;fill-rule:nonzero;stroke:none"
         d="m 3927.96,1797.36 c -133.09,46.22 -250.16,87.7 -250.16,87.7 l -39.35,-69.86 c 0,0 98.57,-64.71 223.25,-142.22 l 66.26,124.38" /><path
         id="path160"
         style="fill:#f8ab98;fill-opacity:1;fill-rule:nonzero;stroke:none"
         d="m 4483.36,2771.29 c 0,0 -74.03,-77.12 -70.08,-119.47 7.19,-77.05 440.14,-365.23 440.14,-365.23 l 19.78,117.91 -251.11,239.05 -138.73,127.74" /><path
         id="path162"
         style="fill:#f5927e;fill-opacity:1;fill-rule:nonzero;stroke:none"
         d="m 4483.36,2771.29 138.73,-127.74 -165.36,96.79 c 14.3,18.04 26.63,30.95 26.63,30.95" /><path
         id="path164"
         style="fill:#f8ab98;fill-opacity:1;fill-rule:nonzero;stroke:none"
         d="m 4886.62,2432.63 c 0,0 14.84,26.11 41.93,5.82 l 16.67,-12.49 c 10.92,-8.18 12.75,-23.84 4.02,-34.31 l -10.94,-13.11 -51.68,54.09" /><path
         id="path166"
         style="fill:#f8ab98;fill-opacity:1;fill-rule:nonzero;stroke:none"
         d="m 4944.53,2385.21 c 0,0 -70.09,64.3 -82.79,62.03 -12.72,-2.28 -93.09,-93.82 -78.22,-112.82 14.86,-18.99 74.62,-62.48 85.07,-56.93 10.44,5.54 87.28,88.22 75.94,107.72" /><path
         id="path168"
         style="fill:#609aef;fill-opacity:1;fill-rule:nonzero;stroke:none"
         d="m 4700.4,2955.26 c -61.67,-48.18 -142.88,-102.19 -223.77,-183.61 l 165.38,-146.19 c 76.85,64.26 157.75,148.05 216.97,191.59 103.3,75.93 107.33,167.9 24.61,209.13 -64.25,32.03 -183.19,-70.92 -183.19,-70.92" /><path
         id="path170"
         style="fill:#609aef;fill-opacity:1;fill-rule:nonzero;stroke:none"
         d="m 4813.06,2461.76 -190.97,181.79 -145.46,128.1 c 0,0 -67.3,-77.48 -63.35,-119.83 4.73,-50.71 193.85,-192.86 322.62,-284.12 l 77.16,94.06" /><path
         id="path172"
         style="fill:#ea7c6a;fill-opacity:1;fill-rule:nonzero;stroke:none"
         d="m 4620.59,1596.52 -260,163.68 v 0.01 c -7.77,-15.47 -15.29,-29.52 -22.18,-41.59 l 282.18,-122.1" /><path
         id="path174"
         style="fill:#262a42;fill-opacity:1;fill-rule:nonzero;stroke:none"
         d="m 5088.9,3227.77 c -3.39,0 -6.15,2.75 -6.15,6.15 0,2.83 1.96,5.11 4.56,5.82 -1.77,1.93 -3.9,3.07 -6.2,3.07 -6.26,0 -11.32,-8.36 -11.32,-18.67 0,-10.31 5.06,-18.67 11.32,-18.67 6.26,0 11.34,8.36 11.34,18.67 0,1.61 -0.16,3.14 -0.4,4.63 -0.93,-0.58 -1.97,-1 -3.15,-1" /><path
         id="path176"
         style="fill:#262a42;fill-opacity:1;fill-rule:nonzero;stroke:none"
         d="m 5055.2,3248.13 c 0,0 1.22,3.66 5.03,7.7 1.93,1.98 4.4,4.17 7.58,5.81 3.1,1.81 6.94,2.93 10.94,3.37 4.02,0.22 8.23,-0.32 11.66,-2.02 1.82,-0.56 3.2,-1.82 4.59,-2.77 1.45,-0.88 2.42,-2.15 3.35,-3.24 1.98,-2.06 2.88,-4.29 3.54,-5.76 0.64,-1.5 0.9,-2.37 0.9,-2.37 0,0 -0.92,0.35 -2.35,1.01 -0.69,0.34 -1.55,0.72 -2.43,1.22 -0.86,0.55 -2.05,0.79 -3.12,1.32 -2.18,0.98 -4.72,1.73 -7.29,2.25 -2.58,0.5 -5.29,0.71 -8.05,0.4 -5.52,-0.31 -11.41,-2.38 -16.13,-3.97 -4.64,-1.71 -8.22,-2.95 -8.22,-2.95" /><path
         id="path178"
         style="fill:#ffffff;fill-opacity:1;fill-rule:nonzero;stroke:none"
         d="m 5102.7,3105.22 c -39.02,-25.32 -83.99,-6.39 -72.12,17.96 11.78,24.2 12.29,59.11 12.3,59.6 -15.46,-6.74 -30.47,-14.7 -42.2,-22.14 0,0 29.03,-50.7 -38.67,-84.2 0,0 15.68,-25.91 72.91,-21.62 29.27,2.2 52.43,23.82 67.78,50.4" /><path
         id="path180"
         style="fill:#3272ce;fill-opacity:1;fill-rule:nonzero;stroke:none"
         d="m 3810.27,1705.15 c 6.57,-4.13 13.23,-8.32 20.01,-12.56 l 60.84,117.59 c -6.81,2.37 -13.54,4.71 -20.2,7.04 l -60.65,-112.07" /><path
         id="path182"
         style="fill:#3272ce;fill-opacity:1;fill-rule:nonzero;stroke:none"
         d="m 3767.96,1731.87 c 6.48,-4.12 13.13,-8.33 19.94,-12.62 l 55.64,107.53 c -6.92,2.42 -13.71,4.79 -20.37,7.13 l -55.21,-102.04" /><path
         id="path184"
         style="fill:#3272ce;fill-opacity:1;fill-rule:nonzero;stroke:none"
         d="m 5519.85,1154.3 111.43,48.74 c -2.16,6.65 -4.35,13.42 -6.58,20.28 l -117.2,-48.7 12.35,-20.32" /><path
         id="path186"
         style="fill:#3272ce;fill-opacity:1;fill-rule:nonzero;stroke:none"
         d="m 5543.77,1114.94 101.59,44.44 c -2.14,6.64 -4.32,13.44 -6.57,20.41 l -107.33,-44.6 12.31,-20.25" /><path
         id="path188"
         style="fill:#f8ab98;fill-opacity:1;fill-rule:nonzero;stroke:none"
         d="m 2407.99,2807.79 c 0,0 -81.79,-68.84 -82.34,-111.38 -1,-77.38 399,-409.76 399,-409.76 l 32.16,115.16 -224.4,264.28 -124.42,141.7" /><path
         id="path190"
         style="fill:#f5927e;fill-opacity:1;fill-rule:nonzero;stroke:none"
         d="m 2407.98,2807.79 124.43,-141.7 -154.19,113.75 c 16.14,16.43 29.76,27.95 29.76,27.95" /><path
         id="path192"
         style="fill:#ffa9a8;fill-opacity:1;fill-rule:nonzero;stroke:none"
         d="m 2773.14,2428.35 c 0,0 17.52,24.39 42.3,1.36 l 15.26,-14.19 c 9.99,-9.29 10.15,-25.05 0.36,-34.54 l -12.26,-11.88 -45.66,59.25" /><path
         id="path194"
         style="fill:#ffa9a8;fill-opacity:1;fill-rule:nonzero;stroke:none"
         d="m 2825.7,2375.08 c 0,0 -62.89,71.35 -75.76,70.43 -12.88,-0.91 -102.49,-83.43 -89.73,-103.9 12.77,-20.46 67.6,-70.03 78.57,-65.61 10.98,4.4 96.13,78.48 86.92,99.08" /><path
         id="path196"
         style="fill:#f75468;fill-opacity:1;fill-rule:nonzero;stroke:none"
         d="m 2643.28,2967.76 c -66.43,-41.38 -152.9,-86.49 -241.95,-158.9 L 2550.31,2646 c 83.22,55.76 172.53,130.51 236.03,167.54 110.75,64.58 124.49,155.6 46.61,205.36 -60.51,38.65 -189.67,-51.14 -189.67,-51.14" /><path
         id="path198"
         style="fill:#f8ab98;fill-opacity:1;fill-rule:nonzero;stroke:none"
         d="m 3084.5,2553.1 c 0,0 80.92,-69.86 123.01,-63.68 76.56,11.26 341.44,458.84 341.44,458.84 l -118.79,13.52 -225.44,-263.4 -120.22,-145.28" /><path
         id="path200"
         style="fill:#f5927e;fill-opacity:1;fill-rule:nonzero;stroke:none"
         d="m 3084.5,2553.09 120.22,145.29 -87.91,-170.25 c -18.77,13.33 -32.31,24.96 -32.31,24.96" /><path
         id="path202"
         style="fill:#f8ab98;fill-opacity:1;fill-rule:nonzero;stroke:none"
         d="m 3401.36,2973.7 c 0,0 -26.86,13.44 -8.03,41.56 l 11.59,17.31 c 7.58,11.34 23.13,13.99 34.04,5.82 l 13.67,-10.23 -51.27,-54.46" /><path
         id="path204"
         style="fill:#f8ab98;fill-opacity:1;fill-rule:nonzero;stroke:none"
         d="m 3445.64,3034.03 c 0,0 -60.49,-73.39 -57.55,-85.95 2.94,-12.58 98.6,-87.99 116.78,-72.15 18.19,15.85 58.45,77.83 52.36,87.97 -6.08,10.13 -92.71,82.49 -111.59,70.13" /><path
         id="path206"
         style="fill:#f8ab98;fill-opacity:1;fill-rule:nonzero;stroke:none"
         d="m 3560.81,1005.15 -20.08,59.08 80.83,25.83 17.35,-66.78 -78.1,-18.13" /><path
         id="path208"
         style="fill:#eb3948;fill-opacity:1;fill-rule:nonzero;stroke:none"
         d="m 3638.91,1023.28 196.97,-16.9 6.58,-28.341 -267.49,-62.117 -14.16,89.228 78.1,18.13" /><path
         id="path210"
         style="fill:#ffffff;fill-opacity:1;fill-rule:nonzero;stroke:none"
         d="m 3727.5,998.129 c -0.59,-0.149 -1.21,-0.188 -1.84,-0.098 -2.74,0.367 -4.66,2.879 -4.29,5.609 l 2.79,21.02 c 0.37,2.73 2.89,4.63 5.62,4.3 2.74,-0.39 4.66,-2.9 4.3,-5.63 l -2.8,-21.01 c -0.28,-2.1 -1.84,-3.73 -3.78,-4.191" /><path
         id="path212"
         style="fill:#ffffff;fill-opacity:1;fill-rule:nonzero;stroke:none"
         d="m 3702.68,1000.01 c -0.58,-0.139 -1.2,-0.178 -1.83,-0.1 -2.74,0.37 -4.66,2.88 -4.3,5.63 l 2.8,21 c 0.36,2.74 2.89,4.64 5.61,4.3 2.75,-0.37 4.67,-2.88 4.3,-5.62 l -2.8,-21.01 c -0.27,-2.11 -1.83,-3.73 -3.78,-4.2" /><path
         id="path214"
         style="fill:#ffffff;fill-opacity:1;fill-rule:nonzero;stroke:none"
         d="m 3677.87,1001.91 c -0.58,-0.14 -1.2,-0.18 -1.83,-0.1 -2.74,0.38 -4.66,2.89 -4.3,5.62 l 2.8,21.01 c 0.36,2.74 2.91,4.64 5.61,4.3 2.75,-0.38 4.67,-2.89 4.3,-5.62 l -2.79,-21.01 c -0.28,-2.11 -1.84,-3.73 -3.79,-4.2" /><path
         id="path216"
         style="fill:#f8ab98;fill-opacity:1;fill-rule:nonzero;stroke:none"
         d="m 1628.11,1885.06 57.14,-25.08 -35.52,-77.07 -60.97,32.29 39.35,69.86" /><path
         id="path218"
         style="fill:#eb3948;fill-opacity:1;fill-rule:nonzero;stroke:none"
         d="m 1588.76,1815.2 -145.45,-133.89 -25.35,14.28 134.77,239.25 75.38,-49.78 -39.35,-69.86" /><path
         id="path220"
         style="fill:#ffffff;fill-opacity:1;fill-rule:nonzero;stroke:none"
         d="m 1510.39,1766.84 c 0.29,0.52 0.68,1 1.16,1.41 2.13,1.77 5.28,1.5 7.05,-0.62 l 13.61,-16.25 c 1.78,-2.12 1.47,-5.26 -0.62,-7.04 -2.12,-1.77 -5.27,-1.5 -7.05,0.62 l -13.61,16.25 c -1.36,1.63 -1.51,3.87 -0.54,5.63" /><path
         id="path222"
         style="fill:#ffffff;fill-opacity:1;fill-rule:nonzero;stroke:none"
         d="m 1528.54,1783.86 c 0.29,0.52 0.67,1.01 1.16,1.42 2.13,1.77 5.28,1.5 7.05,-0.62 l 13.61,-16.25 c 1.77,-2.12 1.47,-5.27 -0.62,-7.04 -2.13,-1.78 -5.28,-1.5 -7.05,0.62 l -13.61,16.24 c -1.37,1.63 -1.51,3.88 -0.54,5.63" /><path
         id="path224"
         style="fill:#ffffff;fill-opacity:1;fill-rule:nonzero;stroke:none"
         d="m 1546.69,1800.88 c 0.29,0.53 0.68,1 1.16,1.41 2.13,1.78 5.28,1.5 7.05,-0.62 l 13.61,-16.24 c 1.77,-2.12 1.46,-5.27 -0.62,-7.04 -2.13,-1.78 -5.28,-1.5 -7.05,0.61 l -13.61,16.25 c -1.37,1.63 -1.51,3.88 -0.54,5.63" /><path
         id="path226"
         style="fill:#262a42;fill-opacity:1;fill-rule:nonzero;stroke:none"
         d="m 2501.09,2277 c 0,0 -73.34,-97.36 -108.78,-292.34 -23.39,-128.67 -118.98,-305.95 -135.98,-311.05 -16.99,-5.09 -583.83,201.14 -583.83,201.14 l -40.94,-95.94 c 0,0 504.43,-322.84 651.19,-362.5 154.88,-41.86 537.88,473.16 537.88,473.16 L 2501.09,2277" /><path
         id="path228"
         style="fill:#3d425b;fill-opacity:1;fill-rule:nonzero;stroke:none"
         d="m 2491.09,2233.67 c 0,0 -88.38,-271.95 251.55,-411.33 243.9,-100 364.06,-170.16 423.48,-201.11 22.11,-11.52 40.1,-29.49 51.63,-51.59 l 322.98,-536.86 98.18,31.03 c 0,0 -193.67,579.33 -244.66,657.52 -50.99,78.18 -396.65,430.75 -396.65,430.75 l -506.51,81.59" /><path
         id="path230"
         style="fill:#262a42;fill-opacity:1;fill-rule:nonzero;stroke:none"
         d="m 3055.73,3410.83 c 0,0 96.63,-75.62 5.36,-161.11 -91.26,-85.5 -86.69,83.58 -86.69,83.58 l 38.91,48.66 42.42,28.87" /><path
         id="path232"
         style="fill:#f5927e;fill-opacity:1;fill-rule:nonzero;stroke:none"
         d="m 2937.21,3062.63 c 0,0 -22.2,-20.71 -30.98,-64.91 0,0 -49.97,-12.88 -97.2,38.6 l 33.71,53.66 94.47,-27.35" /><path
         id="path234"
         style="fill:#f8ab98;fill-opacity:1;fill-rule:nonzero;stroke:none"
         d="m 3052.15,3301.2 c 0,0 41.17,-162.57 -28.66,-228.45 -44.76,-42.22 -180.75,17.23 -180.75,17.23 0,0 -38.49,40.69 -45.56,101.76 4.7,86.18 68.57,126.93 123.08,131.33 54.52,4.4 116.41,13.82 131.89,-21.87" /><path
         id="path236"
         style="fill:#f5927e;fill-opacity:1;fill-rule:nonzero;stroke:none"
         d="m 2972.91,3237.29 c 41.28,4 62.11,39.85 62.14,39.9 v 0.01 l -22.54,30.39 c -0.47,0.32 -0.95,0.63 -1.44,0.94 -4.36,0.68 -43.79,6.9 -59.94,9.47 -11.3,1.79 -62.82,-12.15 -104.16,-24.11 -26.83,-21.43 -47.22,-54.93 -49.79,-102.15 6.88,-50.52 45.56,-101.76 45.56,-101.76 0,0 33.24,-32.79 94.47,-27.35 -49.42,18.71 -50.81,54.61 -39.2,95.52 11.51,40.6 33.58,75.14 74.9,79.14" /><path
         id="path238"
         style="fill:#3d425b;fill-opacity:1;fill-rule:nonzero;stroke:none"
         d="m 2830.91,3071.14 c 0,0 49.42,35.66 59.12,90.74 0,0 -53.78,33.76 -31.02,70.04 22.75,36.29 45.75,-5.16 51.66,-19.56 0,0 16.94,36.6 64.22,43.4 47.28,6.8 102.88,31.25 95.64,107.36 -7.24,76.11 -70.69,92.3 -70.69,92.3 0,0 -170.91,44.16 -235.33,-121.27 0,0 -38.66,-13.92 -42.49,-65.65 -2.44,-33.1 7.64,-62.35 34.1,-82.37 83.27,-62.99 74.79,-114.99 74.79,-114.99" /><path
         id="path240"
         style="fill:#ffffff;fill-opacity:1;fill-rule:nonzero;stroke:none"
         d="m 2950.99,3160.64 c 0,0 29.02,-50.7 -38.67,-84.2 0,0 15.68,-25.91 72.91,-21.62 57.23,4.3 91.3,82.68 88.7,127.7 -2.12,36.53 -82.23,3.94 -122.94,-21.88" /><path
         id="path242"
         style="fill:#ffffff;fill-opacity:1;fill-rule:nonzero;stroke:none"
         d="m 3053.01,3105.22 c -39.02,-25.32 -83.99,-6.39 -72.13,17.96 11.79,24.2 12.3,59.11 12.31,59.6 -15.46,-6.74 -30.48,-14.7 -42.2,-22.14 0,0 29.02,-50.7 -38.67,-84.2 0,0 15.68,-25.91 72.91,-21.62 29.27,2.2 52.43,23.82 67.78,50.4" /><path
         id="path244"
         style="fill:#ffffff;fill-opacity:1;fill-rule:nonzero;stroke:none"
         d="m 2951.92,3155.37 c -1.16,-0.21 -2.4,-0.04 -3.52,0.58 -29.08,16.05 -42.24,53.09 -42.79,54.66 -0.97,2.78 0.51,5.83 3.3,6.8 2.68,1.03 5.84,-0.49 6.81,-3.28 0.12,-0.35 12.41,-34.75 37.85,-48.8 2.59,-1.43 3.53,-4.69 2.1,-7.28 -0.81,-1.47 -2.21,-2.41 -3.75,-2.68" /><path
         id="path246"
         style="fill:#ffffff;fill-opacity:1;fill-rule:nonzero;stroke:none"
         d="m 2913.25,3071.17 c -1.59,-0.28 -3.29,0.16 -4.58,1.35 -37.41,34.78 -24.4,88.41 -23.83,90.67 0.74,2.87 3.59,4.59 6.5,3.89 2.86,-0.73 4.6,-3.63 3.89,-6.5 -0.13,-0.49 -11.97,-49.81 20.73,-80.22 2.17,-2.02 2.29,-5.4 0.28,-7.57 -0.82,-0.88 -1.87,-1.42 -2.99,-1.62" /><path
         id="path248"
         style="fill:#eb3948;fill-opacity:1;fill-rule:nonzero;stroke:none"
         d="m 2821.07,3055.65 c -33.58,19.93 -378.33,-339.4 -433.32,-919.34 -6.17,-65.03 424.98,-89.6 684.98,-4.7 0,0 -36.72,317.66 -36.72,504.7 0,183.33 -0.96,313.75 -92.8,352.39 -59.94,25.21 -96.39,51.67 -122.14,66.95" /><path
         id="path250"
         style="fill:#eb3948;fill-opacity:1;fill-rule:nonzero;stroke:none"
         d="m 2888.6,3023.35 c 0,0 57.42,-4.84 67.74,-21.77 10.33,-16.94 -6.34,-34.44 -6.34,-34.44 0,0 -54.46,17.5 -61.4,20.83 -6.93,3.34 0,35.38 0,35.38" /><path
         id="path252"
         style="fill:#d81e35;fill-opacity:1;fill-rule:nonzero;stroke:none"
         d="m 3036.01,2636.31 c 0,49.68 -0.14,95.31 -2.07,136.44 -51.95,53.29 -124.54,131.95 -134.01,131.93 -13.85,-0.04 -95.27,0 -95.27,0 0,0 38.72,-233.45 242.57,-505.08 h 0.01 c -6.27,81.72 -11.23,168.01 -11.23,236.71" /><path
         id="path254"
         style="fill:#f75468;fill-opacity:1;fill-rule:nonzero;stroke:none"
         d="m 2889.31,2760.1 c 51.36,-59.04 109.6,-137.28 195.19,-213.75 l 137.58,172.31 c -68.24,73.34 -156.53,150.27 -203.14,207.11 -81.3,99.13 -173.35,98.3 -210.15,13.51 -28.58,-65.86 80.52,-179.18 80.52,-179.18" /><path
         id="path256"
         style="fill:#3d425b;fill-opacity:1;fill-rule:nonzero;stroke:none"
         d="m 3047.24,3287.29 c 0,0 56.36,49.64 23.93,140.89 -32.42,91.25 -139.92,69.38 -143.04,65 -3.13,-4.37 15,-10.62 18.75,-18.75 3.75,-8.12 -65,10 -84.38,2.5 -19.37,-7.5 16.06,-14.4 15.84,-27.51 -0.21,-13.11 61.66,-80.61 64.16,-82.49 2.5,-1.87 25.63,-11.87 34.38,-21.25 8.75,-9.37 70.36,-58.39 70.36,-58.39" /><path
         id="path258"
         style="fill:#262a42;fill-opacity:1;fill-rule:nonzero;stroke:none"
         d="m 3039.21,3227.77 c -3.39,0 -6.15,2.75 -6.15,6.15 0,2.83 1.96,5.11 4.56,5.82 -1.78,1.93 -3.9,3.07 -6.2,3.07 -6.26,0 -11.33,-8.36 -11.33,-18.67 0,-10.31 5.07,-18.67 11.33,-18.67 6.26,0 11.34,8.36 11.34,18.67 0,1.61 -0.16,3.14 -0.4,4.63 -0.93,-0.58 -1.97,-1 -3.15,-1" /><path
         id="path260"
         style="fill:#262a42;fill-opacity:1;fill-rule:nonzero;stroke:none"
         d="m 3005.51,3248.13 c 0,0 1.22,3.66 5.03,7.7 1.92,1.98 4.4,4.17 7.58,5.81 3.09,1.81 6.93,2.93 10.94,3.37 4.02,0.22 8.23,-0.32 11.65,-2.02 1.83,-0.56 3.22,-1.82 4.6,-2.77 1.44,-0.88 2.42,-2.15 3.35,-3.24 1.98,-2.06 2.88,-4.29 3.55,-5.76 0.63,-1.5 0.89,-2.37 0.89,-2.37 0,0 -0.92,0.35 -2.35,1.01 -0.7,0.34 -1.56,0.72 -2.43,1.22 -0.86,0.55 -2.06,0.79 -3.11,1.32 -2.19,0.98 -4.73,1.73 -7.3,2.25 -2.58,0.5 -5.29,0.71 -8.05,0.4 -5.51,-0.31 -11.41,-2.38 -16.13,-3.97 -4.64,-1.71 -8.22,-2.95 -8.22,-2.95" /><path
         id="path262"
         style="fill:#f75468;fill-opacity:1;fill-rule:nonzero;stroke:none"
         d="m 2821.07,3055.65 c 0,0 -74.83,57.83 -109.4,44.82 -65,-24.46 -124.17,-251.66 -104.17,-301.66 20,-50 280.89,217.43 213.57,256.84" /><path
         id="path264"
         style="fill:#eb3948;fill-opacity:1;fill-rule:nonzero;stroke:none"
         d="m 2821.07,3055.65 c 0,0 -9.84,4.09 -24.09,9.01 0.95,-59.29 -99.08,-220.35 -189.48,-265.85 20,-50 280.89,217.43 213.57,256.84" /><path
         id="path266"
         style="fill:#eb3948;fill-opacity:1;fill-rule:nonzero;stroke:none"
         d="m 2796.98,3064.66 c 0,0 -0.42,13.72 12.05,13.52 22.14,-0.34 116.92,-81.89 116.92,-81.89 l -105.32,32.27 -23.65,36.1" /><path
         id="path268"
         style="fill:#eb3948;fill-opacity:1;fill-rule:nonzero;stroke:none"
         d="m 2797.18,3011.93 c 5.72,18.28 8.19,40.3 9.01,54.34 -10.27,6.98 -24.7,16.04 -39.89,23.41 4.19,-2.49 33.54,-22.15 13.44,-75.45 -21.61,-57.3 9.62,-27.3 17.44,-2.3" /><path
         id="path270"
         style="fill:none;stroke:#eb3948;stroke-width:10;stroke-linecap:butt;stroke-linejoin:miter;stroke-miterlimit:10;stroke-dasharray:none;stroke-opacity:1"
         d="m 2942.5,2996.29 c 0,0 67.27,-43.56 110.51,-14.9 43.24,28.67 28.22,76.22 28.22,76.22" /><path
         id="path272"
         style="fill:#ffffff;fill-opacity:1;fill-rule:nonzero;stroke:none"
         d="m 3091.75,3057.61 c 0,-5.81 -4.71,-10.53 -10.52,-10.53 -5.81,0 -10.53,4.72 -10.53,10.53 0,5.81 4.72,10.52 10.53,10.52 5.81,0 10.52,-4.71 10.52,-10.52" /><path
         id="path274"
         style="fill:none;stroke:#eb3948;stroke-width:10;stroke-linecap:butt;stroke-linejoin:miter;stroke-miterlimit:10;stroke-dasharray:none;stroke-opacity:1"
         d="m 2947.92,3001.58 c 0,0 90.41,-5.27 119.16,-43.19 28.75,-37.92 54.59,-20.42 54.59,-20.42" /><path
         id="path276"
         style="fill:#ffffff;fill-opacity:1;fill-rule:nonzero;stroke:none"
         d="m 3132.19,2936.97 c 0,-5.81 -4.71,-10.52 -10.52,-10.52 -5.82,0 -10.53,4.71 -10.53,10.52 0,5.81 4.71,10.52 10.53,10.52 5.81,0 10.52,-4.71 10.52,-10.52" /><path
         id="path278"
         style="fill:#f7d2ba;fill-opacity:1;fill-rule:nonzero;stroke:none"
         d="m 2680,1566.31 c -5.96,-26.55 -15.69,-52.28 -27.28,-77.2 -11.48,-25.03 -25.66,-48.97 -42,-71.68 -32.73,-45.18 -75.85,-85.23 -128.22,-111.56 -52.18,-26.47 -112.44,-37.96 -170.74,-34.66 -29.17,1.57 -58.01,6 -85.83,13.27 -14.24,3.59 -26.39,7.09 -39.69,10.67 l -38.9,11.18 c -103.72,29.84 -205.71,64.26 -307.21,95.79 -101.66,30.83 -203.28,58.38 -312.21,53.06 51.42,17.89 107.49,24.11 162.66,22.5 55.34,-1.5 109.99,-9.92 163.43,-20.8 107.01,-22.08 210.15,-53.22 313.03,-83.74 l 76.49,-23 c 24.09,-6.88 48.47,-11.79 72.96,-14.38 48.94,-5.04 98.3,0.44 144.34,18.37 46.09,17.73 88.41,47.48 125.03,84.34 36.6,36.98 68.43,80.2 94.14,127.84" /><path
         id="path280"
         style="fill:#f7d2ba;fill-opacity:1;fill-rule:nonzero;stroke:none"
         d="m 3144.61,3287.29 c 2.72,56.33 -8.33,112.29 -34.63,157.42 -26.23,45.26 -68.16,76.91 -116.28,94.52 -11.9,4.47 -24.58,8.47 -36.72,11.3 -6.02,1 -11.77,2.67 -17.85,3.44 l -18.39,1.92 c -24.87,1.34 -50.75,-0.81 -76.75,-4.89 -26.01,-4.02 -52.35,-9.79 -78.69,-16.89 -26.37,-6.71 -52.89,-14.44 -79.46,-22.55 -106.32,-31.93 -215.69,-67.85 -331.19,-80.81 -57.47,-6.71 -116.6,-6.47 -174.01,3.49 -28.59,5.6 -56.89,12.67 -83.54,23.96 -26.98,10.21 -52.02,24.7 -75.47,40.42 53.56,-18.82 108.05,-29.17 162.55,-30.15 54.5,-0.83 108.54,5.24 161.94,16.66 107.05,21.95 210.92,60.83 319.63,93.46 54.5,15.94 110.17,31.51 169.62,38.08 29.65,3.11 60.22,4.55 91.38,0.47 7.79,-1.2 15.58,-2.69 23.33,-4.08 7.75,-1.6 15.48,-4.1 23.13,-6.29 14.85,-4.91 28.59,-10.64 42.49,-17.29 27.51,-13.31 53.51,-31.04 75.18,-53.28 21.93,-21.93 38.89,-48.59 49.99,-76.76 11.01,-28.29 16.23,-58.01 16.52,-87.18 0.2,-29.15 -3.58,-58.04 -12.78,-84.97" /><path
         id="path282"
         style="fill:#f9ede5;fill-opacity:1;fill-rule:nonzero;stroke:none"
         d="m 3144.61,3339.9 c 2.72,56.32 -8.33,112.29 -34.63,157.41 -26.23,45.26 -68.16,76.91 -116.28,94.53 -11.9,4.46 -24.58,8.47 -36.72,11.29 -6.02,1.01 -11.77,2.67 -17.85,3.45 l -18.39,1.92 c -24.87,1.33 -50.75,-0.82 -76.75,-4.89 -26.01,-4.03 -52.35,-9.8 -78.69,-16.89 -26.37,-6.72 -52.89,-14.44 -79.46,-22.55 -106.32,-31.94 -215.69,-67.86 -331.19,-80.82 -57.47,-6.7 -116.6,-6.47 -174.01,3.5 -28.59,5.59 -56.89,12.66 -83.54,23.96 -26.98,10.2 -52.02,24.69 -75.47,40.41 53.56,-18.81 108.05,-29.16 162.55,-30.15 54.5,-0.83 108.54,5.24 161.94,16.66 107.05,21.95 210.92,60.83 319.63,93.47 54.5,15.93 110.17,31.51 169.62,38.08 29.65,3.1 60.22,4.54 91.38,0.46 7.79,-1.2 15.58,-2.69 23.33,-4.08 7.75,-1.6 15.48,-4.1 23.13,-6.29 14.85,-4.91 28.59,-10.63 42.49,-17.29 27.51,-13.31 53.51,-31.04 75.18,-53.28 21.93,-21.93 38.89,-48.59 49.99,-76.76 11.01,-28.29 16.23,-58.01 16.52,-87.18 0.2,-29.15 -3.58,-58.04 -12.78,-84.96" /><path
         id="path284"
         style="fill:#f9ede5;fill-opacity:1;fill-rule:nonzero;stroke:none"
         d="m 5233.08,3081.65 c 13.98,55.62 19.22,112.44 13.72,166.83 -5.3,54.35 -23.23,105.69 -54.09,146.98 -30.58,41.2 -73.31,73.69 -120.28,95.48 -23.13,10.56 -47.16,18.34 -72.11,22.19 -24.96,3.78 -50.66,4.26 -76.72,1.94 -52.19,-4.06 -105.5,-18.75 -159.51,-34.34 -54.13,-15.66 -109.27,-33.14 -166.65,-45.19 -28.58,-6.23 -57.8,-10.9 -87.26,-13.54 -29.41,-2.89 -59.22,-3.17 -88.72,-0.83 -59.07,4.27 -116.66,21.5 -167.08,49.01 56.05,-13.31 112.09,-19.35 167.26,-14.61 27.54,1.94 54.81,6.01 81.76,11.94 26.96,5.75 53.65,12.93 80.21,21.31 53.16,16.48 105.86,36.65 160.56,55.25 27.39,9.27 55.38,17.82 84.16,25.33 28.85,7.21 58.78,12.74 89.54,15.42 30.76,2.38 62.49,1.79 93.9,-3.62 31.32,-5.87 61.93,-16.26 89.95,-30.85 6.85,-3.83 14.12,-7.27 20.59,-11.46 l 19.48,-12.49 c 12.62,-9 25.04,-18.3 36.56,-28.88 23.31,-20.7 43.86,-44.94 60.08,-71.77 16.23,-26.81 28.01,-56.13 34.94,-86.1 7.17,-29.96 8.98,-60.56 7.64,-90.4 -1.45,-29.9 -6.7,-59.16 -14.79,-87.28 -8.21,-28.05 -18.7,-55.33 -33.14,-80.32" /><path
         id="path286"
         style="fill:#f7d2ba;fill-opacity:1;fill-rule:nonzero;stroke:none"
         d="m 5247.83,3142.08 c 13.99,55.62 19.23,112.44 13.72,166.83 -5.29,54.35 -23.22,105.69 -54.09,146.98 -30.58,41.2 -73.3,73.69 -120.27,95.48 -23.14,10.56 -47.16,18.34 -72.11,22.19 -24.96,3.78 -50.67,4.26 -76.72,1.95 -52.2,-4.07 -105.51,-18.76 -159.51,-34.34 -54.13,-15.67 -109.27,-33.15 -166.65,-45.2 -28.59,-6.23 -57.81,-10.89 -87.26,-13.53 -29.41,-2.9 -59.23,-3.18 -88.73,-0.84 -59.05,4.28 -116.65,21.5 -167.07,49.01 56.05,-13.31 112.09,-19.35 167.26,-14.6 27.54,1.93 54.8,6 81.75,11.93 26.97,5.75 53.66,12.93 80.23,21.31 53.14,16.49 105.85,36.66 160.55,55.25 27.39,9.27 55.38,17.82 84.16,25.33 28.84,7.22 58.78,12.74 89.54,15.42 30.76,2.38 62.49,1.79 93.89,-3.62 31.32,-5.87 61.94,-16.26 89.95,-30.85 6.87,-3.83 14.13,-7.27 20.6,-11.45 l 19.47,-12.5 c 12.64,-8.99 25.05,-18.29 36.57,-28.88 23.31,-20.7 43.85,-44.94 60.07,-71.76 16.23,-26.82 28.01,-56.14 34.95,-86.11 7.16,-29.96 8.98,-60.55 7.64,-90.4 -1.45,-29.89 -6.71,-59.16 -14.79,-87.27 -8.22,-28.06 -18.7,-55.34 -33.15,-80.33" /><path
         id="path288"
         style="fill:#ffffff;fill-opacity:1;fill-rule:nonzero;stroke:none"
         d="m 4338.41,2021.02 c 3.2,-25.09 2.27,-50.86 -2.86,-76.54 -5.28,-25.45 -15.26,-51.96 -36.15,-73.18 -10.34,-10.5 -23.35,-19.01 -37.59,-24.65 -14.35,-5.38 -29.43,-7.41 -44.16,-7.76 -29.45,0.03 -56.64,7.83 -81.85,17.58 -25.3,9.74 -48.46,23.11 -70.65,36.18 -21.32,12.07 -41.82,25.36 -63.45,36.75 l -31.99,17.8 -32.48,16.83 c -10.75,5.77 -21.65,11.18 -32.65,16.44 -10.98,5.28 -21.86,10.79 -32.91,15.88 -88.41,40.86 -179.39,76.05 -273.53,101.66 -94.11,26.09 -190.76,42.2 -291.46,46.34 97.92,25.08 202.61,24.13 303.17,7.44 100.99,-16.58 198.92,-49.11 291.49,-92.06 45.89,-22.3 91.25,-45.82 134.16,-73.36 21.81,-13.16 42.6,-27.95 63.54,-42.36 19.89,-13.61 38.91,-27.21 59.37,-37.56 40.02,-20.94 84.88,-34.04 118.48,-9.37 17.17,11.64 30.27,31.65 40.28,53.28 5.03,10.9 9.13,22.43 12.57,34.27 3.66,11.83 6.42,23.97 8.67,36.39" /><path
         id="path290"
         style="fill:#ffffff;fill-opacity:1;fill-rule:nonzero;stroke:none"
         d="m 4724.22,1537.68 c -7.68,-19.16 -17.46,-37.37 -27.93,-55.2 -10.43,-17.89 -22.18,-35.01 -34.71,-51.68 -25.13,-33.25 -54.42,-63.91 -88.04,-90.62 -16.78,-13.36 -34.92,-25.44 -54.2,-35.95 -19.22,-10.65 -39.74,-19.59 -61.41,-26.07 -21.61,-6.55 -44.26,-10.63 -67.3,-11.99 -22.86,-1.01 -46.98,1.32 -67.33,5.01 -10.58,1.76 -21.15,3.42 -31.59,6.19 -10.42,2.67 -21.02,4.65 -31.29,7.93 l -30.69,10.09 c -10,3.99 -20.04,7.84 -29.94,12.01 -39.28,17.4 -75.75,39.44 -109.41,63.25 -33.79,23.8 -65.22,48.82 -97.5,72.28 l -24.4,17.33 -24.97,16.71 -25.79,15.82 c -8.76,5.06 -17.72,9.89 -26.6,15.27 40.86,-5.36 80.87,-18.67 118.85,-35.28 38.04,-16.68 73.89,-36.75 109.14,-55.17 35.27,-18.5 69.99,-35.56 105.71,-48.71 9.06,-2.93 17.96,-6.18 26.91,-9.29 l 27.32,-7.72 c 18.38,-4.54 36.75,-9.15 55.66,-11.67 19.43,-3.78 35.76,-5.22 53.37,-5.07 17.44,0.19 34.9,2.98 52.34,6.89 34.88,8.18 69.09,23.76 101.87,43.21 32.78,19.6 64.2,43.13 94.33,68.97 30.25,25.8 59.27,53.71 87.6,83.46" /><path
         id="path292"
         style="fill:#ffffff;fill-opacity:1;fill-rule:nonzero;stroke:none"
         d="m 3345.56,3173.1 c 0,0 72.96,87.23 203,34.89 0,0 44.41,71.38 139.57,47.59 0,0 63.44,145.9 222.05,145.9 158.59,0 220.45,-141.15 220.45,-141.15 0,0 157.01,28.55 225.21,-87.23 H 3345.56" /><path
         id="path294"
         style="fill:#f9b138;fill-opacity:1;fill-rule:nonzero;stroke:none"
         d="m 4761.52,3929.73 c 0,-188.78 -153.03,-341.81 -341.81,-341.81 -188.78,0 -341.82,153.03 -341.82,341.81 0,188.79 153.04,341.82 341.82,341.82 188.78,0 341.81,-153.03 341.81,-341.82" /><path
         id="path296"
         style="fill:#f49245;fill-opacity:1;fill-rule:nonzero;stroke:none"
         d="m 4639.76,4191.23 c 25.6,-47.93 40.15,-102.66 40.15,-160.79 0,-188.78 -153.03,-341.82 -341.81,-341.82 -83.84,0 -160.59,30.23 -220.05,80.33 57.53,-107.72 171.01,-181.03 301.66,-181.03 188.78,0 341.81,153.03 341.81,341.81 0,104.95 -47.33,198.79 -121.76,261.5" /><path
         id="path298"
         style="fill:#ffffff;fill-opacity:1;fill-rule:nonzero;stroke:none"
         d="m 5625.33,3867.35 c 0,0 -92.2,110.24 -256.57,44.1 0,0 -56.13,90.2 -176.4,60.13 0,0 -80.18,184.42 -280.63,184.42 -200.45,0 -278.62,-178.41 -278.62,-178.41 0,0 -198.45,36.09 -284.64,-110.24 h 1276.86" /></g></g></svg>